<svg width="135" height="40" viewBox="0 0 135 40" fill="none" xmlns="http://www.w3.org/2000/svg">
<path d="M130 0H5C2.23858 0 0 2.23858 0 5V35C0 37.7614 2.23858 40 5 40H130C132.761 40 135 37.7614 135 35V5C135 2.23858 132.761 0 130 0Z" fill="black"/>
<path d="M130 0.8C132.32 0.8 134.2 2.68 134.2 5V35C134.2 37.32 132.32 39.2 130 39.2H5C2.68 39.2 0.8 37.32 0.8 35V5C0.8 2.68 2.68 0.8 5 0.8H130ZM130 0H5C2.25 0 0 2.25 0 5V35C0 37.75 2.25 40 5 40H130C132.75 40 135 37.75 135 35V5C135 2.25 132.75 0 130 0Z" fill="#A6A6A6"/>
<path d="M46.1298 12.22C45.9298 12.51 45.6498 12.72 45.2898 12.87C44.9298 13.01 44.5098 13.08 44.0298 13.08C43.5498 13.08 43.1098 12.97 42.7398 12.74C42.3598 12.51 42.0698 12.19 41.8698 11.77C41.6698 11.35 41.5598 10.86 41.5498 10.31V9.78996C41.5498 8.88996 41.7598 8.19996 42.1798 7.69996C42.5998 7.20996 43.1898 6.95996 43.9498 6.95996C44.5698 6.95996 45.0698 7.11996 45.4498 7.43996C45.8298 7.75996 46.0598 8.20996 46.1498 8.78996H45.3598C45.2098 7.99996 44.7398 7.59996 43.9498 7.59996C43.4198 7.59996 43.0198 7.78996 42.7498 8.15996C42.4798 8.52996 42.3398 9.06996 42.3398 9.76996V10.26C42.3398 10.93 42.4898 11.46 42.7998 11.86C43.1098 12.26 43.5198 12.45 44.0398 12.45C44.3298 12.45 44.5898 12.42 44.8098 12.35C45.0298 12.28 45.2098 12.17 45.3598 12.02V10.69H43.9798V10.05H46.1398V12.24L46.1298 12.22Z" fill="white" stroke="white" stroke-width="0.2" stroke-miterlimit="10"/>
<path d="M50.9798 10.25H48.3998V12.36H51.3998V13H47.6098V7.04004H51.3498V7.68004H48.3898V9.60004H50.9698V10.24L50.9798 10.25Z" fill="white" stroke="white" stroke-width="0.2" stroke-miterlimit="10"/>
<path d="M56.7398 7.68004H54.8198V13H54.0398V7.68004H52.1298V7.04004H56.7398V7.68004Z" fill="white" stroke="white" stroke-width="0.2" stroke-miterlimit="10"/>
<path d="M60.7098 13H59.9198V7.04004H60.7098V13Z" fill="white" stroke="white" stroke-width="0.2" stroke-miterlimit="10"/>
<path d="M66.3098 7.68004H64.3898V13H63.6098V7.68004H61.6998V7.04004H66.3098V7.68004Z" fill="white" stroke="white" stroke-width="0.2" stroke-miterlimit="10"/>
<path d="M74.0198 10.21C74.0198 10.79 73.9198 11.3 73.7298 11.74C73.5398 12.18 73.2598 12.51 72.8998 12.74C72.5398 12.97 72.1198 13.08 71.6398 13.08C71.1598 13.08 70.7498 12.96 70.3898 12.73C70.0298 12.5 69.7498 12.17 69.5498 11.74C69.3498 11.31 69.2498 10.82 69.2398 10.26V9.82995C69.2398 9.25995 69.3398 8.74995 69.5398 8.30995C69.7398 7.86995 70.0198 7.52995 70.3898 7.29995C70.7498 7.06995 71.1698 6.94995 71.6398 6.94995C72.1098 6.94995 72.5398 7.06995 72.8998 7.29995C73.2598 7.52995 73.5398 7.85995 73.7398 8.29995C73.9398 8.73995 74.0298 9.24995 74.0298 9.82995V10.21H74.0198ZM73.2398 9.82995C73.2398 9.11995 73.0998 8.57995 72.8098 8.19995C72.5298 7.81995 72.1298 7.62995 71.6198 7.62995C71.1098 7.62995 70.7298 7.81995 70.4498 8.19995C70.1698 8.57995 70.0198 9.09995 70.0098 9.76995V10.21C70.0098 10.9 70.1498 11.43 70.4398 11.82C70.7298 12.21 71.1198 12.41 71.6298 12.41C72.1398 12.41 72.5298 12.23 72.8098 11.86C73.0898 11.49 73.2298 10.96 73.2398 10.27V9.82995Z" fill="white" stroke="white" stroke-width="0.2" stroke-miterlimit="10"/>
<path d="M79.9498 13H79.1598L76.1598 8.41004V13H75.3698V7.04004H76.1598L79.1698 11.65V7.04004H79.9498V13Z" fill="white" stroke="white" stroke-width="0.2" stroke-miterlimit="10"/>
<path d="M68.1398 21.75C65.7898 21.75 63.8698 23.54 63.8698 26C63.8698 28.46 65.7898 30.25 68.1398 30.25C70.4898 30.25 72.4098 28.45 72.4098 26C72.4098 23.55 70.4898 21.75 68.1398 21.75ZM68.1398 28.58C66.8498 28.58 65.7398 27.52 65.7398 26C65.7398 24.48 66.8498 23.42 68.1398 23.42C69.4298 23.42 70.5398 24.47 70.5398 26C70.5398 27.53 69.4298 28.58 68.1398 28.58ZM58.8298 21.75C56.4798 21.75 54.5598 23.54 54.5598 26C54.5598 28.46 56.4798 30.25 58.8298 30.25C61.1798 30.25 63.0998 28.45 63.0998 26C63.0998 23.55 61.1798 21.75 58.8298 21.75ZM58.8298 28.58C57.5398 28.58 56.4298 27.52 56.4298 26C56.4298 24.48 57.5398 23.42 58.8298 23.42C60.1198 23.42 61.2298 24.47 61.2298 26C61.2298 27.53 60.1198 28.58 58.8298 28.58ZM47.7498 23.05V24.85H52.0698C51.9398 25.86 51.5998 26.61 51.0898 27.12C50.4598 27.75 49.4798 28.44 47.7598 28.44C45.0998 28.44 43.0198 26.3 43.0198 23.64C43.0198 20.98 45.0998 18.84 47.7598 18.84C49.1898 18.84 50.2398 19.4 51.0098 20.13L52.2798 18.86C51.1998 17.83 49.7698 17.04 47.7498 17.04C44.1098 17.04 41.0498 20 41.0498 23.65C41.0498 27.3 44.1098 30.26 47.7498 30.26C49.7198 30.26 51.1998 29.62 52.3598 28.41C53.5498 27.22 53.9198 25.54 53.9198 24.19C53.9198 23.77 53.8898 23.38 53.8198 23.06H47.7498V23.05ZM93.0598 24.45C92.7098 23.5 91.6298 21.74 89.4198 21.74C87.2098 21.74 85.4098 23.46 85.4098 25.99C85.4098 28.37 87.2098 30.24 89.6298 30.24C91.5798 30.24 92.7098 29.05 93.1698 28.36L91.7198 27.39C91.2398 28.1 90.5798 28.57 89.6298 28.57C88.6798 28.57 87.9998 28.14 87.5698 27.28L93.2598 24.93L93.0698 24.45H93.0598ZM87.2598 25.87C87.2098 24.23 88.5298 23.39 89.4798 23.39C90.2198 23.39 90.8498 23.76 91.0598 24.29L87.2598 25.87ZM82.6398 29.99H84.5098V17.49H82.6398V29.99ZM79.5798 22.69H79.5198C79.0998 22.19 78.2998 21.74 77.2798 21.74C75.1498 21.74 73.1998 23.61 73.1998 26.01C73.1998 28.41 75.1498 30.25 77.2798 30.25C78.2898 30.25 79.0998 29.8 79.5198 29.28H79.5798V29.89C79.5798 31.52 78.7098 32.39 77.3098 32.39C76.1698 32.39 75.4598 31.57 75.1698 30.88L73.5398 31.56C74.0098 32.69 75.2498 34.07 77.3098 34.07C79.4998 34.07 81.3498 32.78 81.3498 29.64V22H79.5798V22.69ZM77.4398 28.57C76.1498 28.57 75.0698 27.49 75.0698 26.01C75.0698 24.53 76.1498 23.42 77.4398 23.42C78.7298 23.42 79.7098 24.52 79.7098 26.01C79.7098 27.5 78.7098 28.57 77.4398 28.57ZM101.82 17.49H97.3498V29.99H99.2198V25.25H101.83C103.9 25.25 105.93 23.75 105.93 21.37C105.93 18.99 103.9 17.49 101.83 17.49H101.82ZM101.87 23.52H99.2198V19.23H101.87C103.27 19.23 104.06 20.39 104.06 21.37C104.06 22.35 103.27 23.51 101.87 23.51V23.52ZM113.4 21.72C112.05 21.72 110.65 22.32 110.07 23.63L111.73 24.32C112.08 23.63 112.74 23.4 113.43 23.4C114.39 23.4 115.38 23.98 115.39 25.01V25.14C115.05 24.95 114.33 24.66 113.44 24.66C111.65 24.66 109.84 25.64 109.84 27.47C109.84 29.14 111.3 30.22 112.94 30.22C114.19 30.22 114.89 29.66 115.32 29H115.38V29.96H117.18V25.17C117.18 22.95 115.52 21.71 113.38 21.71L113.4 21.72ZM113.17 28.57C112.56 28.57 111.71 28.26 111.71 27.51C111.71 26.55 112.77 26.18 113.69 26.18C114.51 26.18 114.9 26.36 115.39 26.6C115.25 27.76 114.25 28.58 113.17 28.58V28.57ZM123.75 21.99L121.61 27.41H121.55L119.33 21.99H117.32L120.65 29.57L118.75 33.78H120.7L125.83 21.99H123.76H123.75ZM106.94 29.99H108.81V17.49H106.94V29.99Z" fill="white"/>
<path d="M20.7202 19.4199L10.0702 30.7199C10.4002 31.9499 11.5202 32.8499 12.8502 32.8499C13.3802 32.8499 13.8802 32.7099 14.3102 32.4499L14.3402 32.4299L26.3202 25.5199L20.7102 19.4099L20.7202 19.4199Z" fill="#EA4335"/>
<path d="M31.4902 17.5H31.4802L26.3102 14.49L20.4802 19.68L26.3302 25.53L31.4802 22.56C32.3802 22.07 32.9902 21.12 32.9902 20.03C32.9902 18.94 32.3902 17.99 31.4902 17.51V17.5Z" fill="#FBBC04"/>
<path d="M10.0702 9.27979C10.0102 9.51979 9.97021 9.75979 9.97021 10.0198V29.9798C9.97021 30.2398 10.0002 30.4798 10.0702 30.7198L21.0802 19.7098L10.0702 9.27979Z" fill="#4285F4"/>
<path d="M20.8002 19.9999L26.3102 14.4899L14.3402 7.54989C13.9102 7.28989 13.4002 7.13989 12.8502 7.13989C11.5202 7.13989 10.4002 8.04989 10.0702 9.26989L20.8002 19.9899V19.9999Z" fill="#34A853"/>
</svg>
