<svg viewBox="0 0 92 89" class="icon alert-warning">
  <style type="text/css">
    .st0{fill:none;stroke-width:4;stroke-linecap:round;stroke-linejoin:round;}
  </style>
  <title>Exclamation Icon</title>
  <path class="st0" stroke="currentColor" d="M57.9999962,85.2600021c9.6679955-2.8824005,17.975399-9.1484985,23.4031944-17.6524048c5.427803-8.5039978,7.6133041-18.6774979,6.1567993-28.6602974c-1.4564972-9.9827995-6.4575958-19.1079006-14.0887985-25.7064991C65.8398895,6.6421404,56.0884972,3.0107999,45.9999962,3.0107999s-19.8398991,3.6313405-27.471199,10.2300014C10.8975964,19.8393993,5.8964663,28.9645004,4.4399962,38.9473c-1.45648,9.9827995,0.7290096,20.1562996,6.1567998,28.6602974c5.4278011,8.5039062,13.7352009,14.7700043,23.4032001,17.6524048"/>
  <path class="st0" stroke="currentColor" d="M45.999897,19v36"/>
  <path class="st0" stroke="currentColor" d="M45.999897,73c2.2090988,0,4-1.7909012,4-4s-1.7909012-4-4-4s-4,1.7909012-4,4S43.7907982,73,45.999897,73z"/>
</svg>