<?xml version="1.0" encoding="UTF-8"?><svg id="h" xmlns="http://www.w3.org/2000/svg" width="96px" height="96px" viewBox="0 0 96 96"><defs><style>.ae{fill:#65b2e8;}.ae,.af,.ag,.ah{stroke:#2659d9;stroke-linecap:round;stroke-linejoin:round;stroke-width:2px;}.af,.ai{fill:#fff;}.ag{fill:#ffc600;}.ah{fill:none;}.ai{stroke-width:0px;}</style></defs><g id="i"><g id="j"><g id="k"><g id="l"><g id="m"><g id="n"><path id="o" class="af" d="m71.202878621841592,57.973137405133457c-1.289374769989081,1.799995110633972-3.645497411671386,2.143822476016794-5.258489077928971.763439888129142,1.612991666257585,1.380382587887652,1.870795740869653,3.958958210858327.581420970878753,5.759038639271239-1.28928945221196,1.799998392089037-3.645497411669567,2.143825757471859-5.258397197243539.763439888129142l-1.658492293754534-1.420813370476026c.889890680033204.763525205908081,1.370321652948405,1.886018401402907,1.400599619910281,3.043865971678315.025290158380812.940470996794829-.242752049638511,1.906317469747592-.819181930482955,2.715261266825109-1.289286170758714,1.79999511063761-3.645497411673205,2.143822476016794-5.258397197245358.763525205908081l-3.013496124029189-2.578746258526735c.889890680033204.763525205904443,1.370233053714401,1.886018401402907,1.400596338455216,3.04386269022325.025290158380812.940470996794829-.146579224694506,1.547267443835153-.723009105538949,2.331006400310798-.778662548662396,1.066836470919952-2.609112824722615,2.411867965483907-4.616420292441035.905031304238946L15.230324038562685,47.208342276910116c.308429511354916-.146666183199159.591680433730289-.379268698662599.819207361744702-.692729497850451l12.114726652502213-16.892867614208626c.707870122058011-.985984750102944,1.440943443993092-1.698851704739354,1.440943443993092-1.698851704739354.551138081738827-.096068638808902,1.461329470843339.444876429503893,2.968079173586375.429710374034585,4.277582376365899-.040447189852785,13.783282342286839-.015190666365925,17.155749737359656,2.123591497821508,1.132642729669897.718019656232173,18.601940224723876,19.785160810065463,18.601940224723876,19.785160810065463l2.305712960474921,1.941501208970294c1.597759161366412,1.39045008573521,1.855563235978479,3.969196344263764.566195028894072,5.769280054129922Z"/><path id="p" class="ah" d="m65.944389543912621,58.741909654410847l-6.436629153642571-5.238354082233855"/><path id="q" class="ah" d="m59.604018532991176,63.843574811333383l-4.939945308022288-4.216850884702581"/><path id="r" class="ah" d="m51.913368984132831,67.787395679439214l-1.107267253511964-1.081977095129332"/><g id="s"><path id="t" class="ae" d="m23.401256894947437,21.285283695262478l8.934518769174247,5.850103677507832c1.046621079627585.793830244857418,1.2741488280044,2.33604671214016.515698389182944,3.443313145287902l-13.014768507435292,18.935615594841693c-.758363480315893,1.107352571289084-2.224683220831139,1.360083519541149-3.271304300458723.566191747442645l-8.565401245410612-6.507254226143232,15.401256894947437-22.28796993893684Z"/></g></g><g id="u"><path class="ai" d="m62.526677474677854,29.374918348127721c-.647223948173632-.156731219956782-3.448419906540948-.626974921987312-5.243341890814918-.788781729394032-4.712419200372096-.424720924726898-8.135466912206539.353977719918475-11.993435125099495,2.057940287727433l-11.457353990515912,5.470870459555954c-2.123607084724426,1.25393179598359-2.826487757472933,3.994399544140833-1.567479553677913,6.118008269590064v.004989449307686c1.259008203796839,2.12369404322817,3.994484861919773,2.826487757472933,6.118093587367184,1.567566512181656l13.626551942694277-6.755254959874947,20.947910050779683,16.862673324296338,4.530485600902466-2.280426083547354"/><path class="ah" d="m62.526677474677854,29.374918348127721c-.647223948173632-.156731219956782-3.448419906540948-.626974921987312-5.243341890814918-.788781729394032-4.712419200372096-.424720924726898-8.135466912206539.353977719918475-11.993435125099495,2.057940287727433l-11.457353990515912,5.470870459555954c-2.123607084724426,1.25393179598359-2.826487757472933,3.994399544140833-1.567479553677913,6.118008269590064v.004989449307686c1.259008203796839,2.12369404322817,3.994484861919773,2.826487757472933,6.118093587367184,1.567566512181656l13.626551942694277-6.755254959874947,20.947910050779683,16.862673324296338,4.530485600902466-2.280426083547354"/></g><g id="v"><path id="w" class="af" d="m42.04414309038475,64.637122030868341c1.47130836946053-1.289286170756895,3.675863977865447-1.097114437881828,4.919646239675785.429847374698511,1.243867579589278,1.526965094037223,1.061845380885643,3.807305859807457-.409548306352008,5.096592030566171l-3.433197246007694,2.730490490266675c-1.420813370476026.783738956475645-3.220723163334696.465201749471817-4.302785576242968-.859527395292389-.54099018829038-.662361290929766-.814105522667887-1.47139368723947-.829246146877267-2.280422802094108-.015225941984681-1.046622720356027.404471898540578-2.088254350675925,1.23362944618566-2.816339864028123l2.821501589618492-2.300639834116737Z"/><path id="x" class="af" d="m30.141543506897506,56.158001670290105c.834320913965712-.728085513354017,1.253933436712032-1.774708233706406,1.238794453231094-2.816339864026304-.010151174899875-.808943797075699-.283097514447945-1.612899785573973-.829160829100147-2.280337484315169-1.082062412906453-1.324729144767844-2.88713229062887-1.643266351768034-4.302872534744893-.859527395292389l-4.818656241710414,3.888338060538445c-1.47130836946053,1.289286170758714-1.653415065577065,3.569626936528948-.409546665623566,5.096592030566171,1.243782261808519,1.526961812580339,3.448336229486813,1.719133545455406,4.919731557452906.429847374698511l4.20171026049502-3.458572722169265Z"/><g id="y"><path id="z" class="af" d="m37.402258722553597,59.277564200101551l1.516900877641092-1.324729144767844c1.47139368723947-1.289286170758714,3.675863977865447-1.097114437883647,4.924807965267973.429850656151757,1.243782261810338,1.526961812583977,1.061760063108522,3.807302578354211-.409633624130947,5.096588749111106l-4.201713541950085,3.458572722165627-2.750615641602053,2.406706239898995c-1.47130836946053,1.2893747699909-3.675863977865447,1.097203037115833-4.919733198181348-.429762056923209-.540986906838953-.662364572379374-.814105522669706-1.471396968689078-.824169739064018-2.275349675732286-.0152259419865-1.046622720352389.404558857042502-2.09315684147623,1.233803363194966-2.816254546247364l5.43035353882442-4.545622943656781Z"/></g><g id="aa"><path id="ab" class="af" d="m30.141543506897506,56.158086988067225l2.750618923057118-2.406706239895357c1.47130836946053-1.289371488535835,3.675862337140643-1.097199755664406,4.919729916728102.429765338374636.540990188292199.662361290929766.814105522671525,1.47139368723947.829246146877267,2.280422802094108.015140624207561,1.046622720352389-.404471898538759,2.088083715116227-1.233718045416026,2.816165947016998l-5.435428305911046,4.540635135075718-1.516900877641092,1.324729144764206c-1.47130836946053,1.28928945221196-3.675862337140643,1.097117719340531-4.919644598949162-.429847374698511-1.243869220315901-1.526965094033585-1.061933980119647-3.807302578350573.409461347846445-5.096592030562533l4.196635493408394-3.458572722169265Z"/></g><path id="ac" class="ah" d="m30.141458189120385,56.157916352511165l-4.201711901223462,3.463560530748509"/></g><path id="ad" class="ag" d="m88,47.00627860392342l-9.59670778382133,5.561879097816927c-1.17307351225827.677590514367694-2.694965479933671.242581414080632-3.397846152683996-.980987097163961l-12.089437314483803-20.856986730294011c-.707868481333207-1.218578241571777-.328683459722015-2.755555048753195.83931036326976-3.438151419696624l9.647379981266567-6.027118584000164,14.597300906452801,25.741364733337832Z"/></g></g></g></g></g></svg>