<svg width="24" height="24" viewBox="0 0 24 24" fill="none" xmlns="http://www.w3.org/2000/svg">
<path d="M14.8572 21.5858C14.5925 21.6647 14.442 21.9432 14.5209 22.2078C14.5998 22.4725 14.8783 22.623 15.1429 22.5441L14.8572 21.5858ZM12 1.50269V2.00269V1.50269ZM8.85717 22.5441C9.1218 22.623 9.40028 22.4725 9.47918 22.2078C9.55808 21.9432 9.40751 21.6647 9.14288 21.5858L8.85717 22.5441ZM12 12H11.5C11.5 12.2761 11.7239 12.5 12 12.5V12ZM16 12.5C16.2762 12.5 16.5 12.2761 16.5 12C16.5 11.7238 16.2762 11.5 16 11.5V12.5ZM12.5 5.99999C12.5 5.72385 12.2762 5.49999 12 5.49999C11.7239 5.49999 11.5 5.72385 11.5 5.99999H12.5ZM15.1429 22.5441C17.675 21.7892 19.8507 20.1481 21.2723 17.9209L20.4294 17.3829C19.137 19.4076 17.1591 20.8995 14.8572 21.5858L15.1429 22.5441ZM21.2723 17.9209C22.6939 15.6937 23.2662 13.0292 22.8848 10.4146L21.8953 10.559C22.242 12.9358 21.7217 15.3581 20.4294 17.3829L21.2723 17.9209ZM22.8848 10.4146C22.5033 7.80007 21.1935 5.41018 19.1949 3.68197L18.5408 4.4384C20.3577 6.0095 21.5485 8.18213 21.8953 10.559L22.8848 10.4146ZM19.1949 3.68197C17.1962 1.95375 14.6423 1.00269 12 1.00269V2.00269C14.4021 2.00269 16.7238 2.86729 18.5408 4.4384L19.1949 3.68197ZM12 1.00269C9.3578 1.00269 6.80385 1.95375 4.80519 3.68197L5.45927 4.4384C7.27623 2.86729 9.598 2.00269 12 2.00269V1.00269ZM4.80519 3.68197C2.80653 5.41018 1.49672 7.80007 1.11526 10.4146L2.10479 10.559C2.45157 8.18213 3.6423 6.0095 5.45927 4.4384L4.80519 3.68197ZM1.11526 10.4146C0.733805 13.0292 1.30619 15.6937 2.72776 17.9209L3.57069 17.3829C2.27836 15.3581 1.75801 12.9358 2.10479 10.559L1.11526 10.4146ZM2.72776 17.9209C4.14933 20.1481 6.32508 21.7892 8.85717 22.5441L9.14288 21.5858C6.84099 20.8995 4.86303 19.4076 3.57069 17.3829L2.72776 17.9209ZM12 12.5H16V11.5H12V12.5ZM12.5 12V5.99999H11.5V12H12.5ZM12 3.49999V4.49999C12.5523 4.49999 13 4.05228 13 3.49999H12ZM12 3.49999H11C11 4.05228 11.4477 4.49999 12 4.49999V3.49999ZM12 3.49999V2.49999C11.4477 2.49999 11 2.94771 11 3.49999H12ZM12 3.49999H13C13 2.94771 12.5523 2.49999 12 2.49999V3.49999ZM12 20.5V20.5V21.5C12.5523 21.5 13 21.0523 13 20.5H12ZM12 20.5V20.5H11C11 21.0523 11.4477 21.5 12 21.5V20.5ZM12 20.5V20.5V19.5C11.4477 19.5 11 19.9477 11 20.5H12ZM12 20.5V20.5H13C13 19.9477 12.5523 19.5 12 19.5V20.5ZM16.25 19.25V19.25V20.25C16.8023 20.25 17.25 19.8023 17.25 19.25H16.25ZM16.25 19.25V19.25H15.25C15.25 19.8023 15.6977 20.25 16.25 20.25V19.25ZM16.25 19.25V19.25V18.25C15.6977 18.25 15.25 18.6977 15.25 19.25H16.25ZM16.25 19.25V19.25H17.25C17.25 18.6977 16.8023 18.25 16.25 18.25V19.25ZM19.25 16.25V17.25C19.8023 17.25 20.25 16.8023 20.25 16.25H19.25ZM19.25 16.25H18.25C18.25 16.8023 18.6977 17.25 19.25 17.25V16.25ZM19.25 16.25V15.25C18.6977 15.25 18.25 15.6977 18.25 16.25H19.25ZM19.25 16.25H20.25C20.25 15.6977 19.8023 15.25 19.25 15.25V16.25ZM20.5 12V13C21.0523 13 21.5 12.5523 21.5 12H20.5ZM20.5 12H19.5C19.5 12.5523 19.9477 13 20.5 13V12ZM20.5 12V11C19.9477 11 19.5 11.4477 19.5 12H20.5ZM20.5 12H21.5C21.5 11.4477 21.0523 11 20.5 11V12ZM19.25 7.74999V8.74999C19.8023 8.74999 20.25 8.30228 20.25 7.74999H19.25ZM19.25 7.74999H18.25C18.25 8.30228 18.6977 8.74999 19.25 8.74999V7.74999ZM19.25 7.74999V6.74999C18.6977 6.74999 18.25 7.19771 18.25 7.74999H19.25ZM19.25 7.74999H20.25C20.25 7.19771 19.8023 6.74999 19.25 6.74999V7.74999ZM16.25 4.74999V5.74999C16.8023 5.74999 17.25 5.30228 17.25 4.74999H16.25ZM16.25 4.74999H15.25C15.25 5.30228 15.6977 5.74999 16.25 5.74999V4.74999ZM16.25 4.74999V3.74999C15.6977 3.74999 15.25 4.19771 15.25 4.74999H16.25ZM16.25 4.74999H17.25C17.25 4.19771 16.8023 3.74999 16.25 3.74999V4.74999ZM7.75002 4.74999H7.75003V5.74999C8.30231 5.74999 8.75002 5.30228 8.75002 4.74999H7.75002ZM7.75003 4.74999H7.75003H6.75003C6.75003 5.30228 7.19774 5.74999 7.75003 5.74999V4.74999ZM7.75003 4.74999H7.75003V3.74999C7.19774 3.74999 6.75003 4.19771 6.75003 4.74999H7.75003ZM7.75003 4.74999H7.75002H8.75002C8.75002 4.19771 8.30231 3.74999 7.75003 3.74999V4.74999ZM4.75002 7.74999V8.74999C5.30231 8.74999 5.75002 8.30228 5.75002 7.74999H4.75002ZM4.75002 7.74999H3.75002C3.75002 8.30228 4.19774 8.74999 4.75002 8.74999V7.74999ZM4.75002 7.74999V6.74999C4.19774 6.74999 3.75002 7.19771 3.75002 7.74999H4.75002ZM4.75002 7.74999H5.75002C5.75002 7.19771 5.30231 6.74999 4.75002 6.74999V7.74999ZM3.50003 12V13C4.05231 13 4.50003 12.5523 4.50003 12H3.50003ZM3.50003 12H3.50002H2.50002C2.50002 12.5523 2.94774 13 3.50003 13V12ZM3.50002 12H3.50003V11C2.94774 11 2.50002 11.4477 2.50002 12H3.50002ZM3.50003 12H4.50003C4.50003 11.4477 4.05231 11 3.50003 11V12ZM4.75002 16.25V17.25C5.30231 17.25 5.75002 16.8023 5.75002 16.25H4.75002ZM4.75002 16.25H3.75002C3.75002 16.8023 4.19774 17.25 4.75002 17.25V16.25ZM4.75002 16.25V15.25C4.19774 15.25 3.75002 15.6977 3.75002 16.25H4.75002ZM4.75002 16.25H5.75002C5.75002 15.6977 5.30231 15.25 4.75002 15.25V16.25ZM7.75002 19.25L7.75003 19.25V20.25C8.30231 20.25 8.75002 19.8023 8.75002 19.25H7.75002ZM7.75003 19.25L7.75003 19.25H6.75003C6.75003 19.8023 7.19774 20.25 7.75003 20.25V19.25ZM7.75003 19.25L7.75003 19.25V18.25C7.19774 18.25 6.75003 18.6977 6.75003 19.25H7.75003ZM7.75003 19.25L7.75002 19.25H8.75002C8.75002 18.6977 8.30231 18.25 7.75003 18.25V19.25ZM12.5 12C12.5 12.2761 12.2762 12.5 12 12.5V13.5C12.8285 13.5 13.5 12.8284 13.5 12H12.5ZM12 12.5C11.7239 12.5 11.5 12.2761 11.5 12H10.5C10.5 12.8284 11.1716 13.5 12 13.5V12.5ZM11.5 12C11.5 11.7238 11.7239 11.5 12 11.5V10.5C11.1716 10.5 10.5 11.1716 10.5 12H11.5ZM12 11.5C12.2762 11.5 12.5 11.7238 12.5 12H13.5C13.5 11.1716 12.8285 10.5 12 10.5V11.5Z" fill="#2659D9"/>
</svg>
