<svg width="24" height="25" viewBox="0 0 24 25" fill="none" xmlns="http://www.w3.org/2000/svg">
<path d="M1.5 9.5C1.5 8.67157 2.17157 8 3 8H4.5V15H3C2.17157 15 1.5 14.3284 1.5 13.5V9.5Z" stroke="#1F1F21"/>
<path d="M19.5 8H21C21.8284 8 22.5 8.67157 22.5 9.5V13.5C22.5 14.3284 21.8284 15 21 15H19.5V8Z" stroke="#1F1F21"/>
<rect x="14.5" y="20" width="3" height="5" rx="1.5" transform="rotate(90 14.5 20)" stroke="#1F1F21"/>
<path d="M20 15.5V15.5C20 18.8137 17.3137 21.5 14 21.5V21.5" stroke="#1F1F21"/>
<path d="M5 6.5V6.5C5 3.99049 6.94173 1.90145 9.44338 1.70291V1.70291C11.1402 1.56824 12.8598 1.56824 14.5566 1.70291V1.70291C17.0583 1.90145 19 3.99049 19 6.5V6.5" stroke="#1F1F21"/>
</svg>
