<svg width="66" height="52" viewBox="0 0 66 52" fill="none" xmlns="http://www.w3.org/2000/svg">
<g id="Email Icon" clip-path="url(#clip0_3212_7283)">
<path id="Vector" d="M48.7321 48.5H6.62432C4.004 48.5 1.88135 46.41 1.88135 43.83V15.43C1.88135 12.85 4.004 10.76 6.62432 10.76H48.7321C51.3525 10.76 53.4751 12.85 53.4751 15.43V43.83C53.4751 46.41 51.3525 48.5 48.7321 48.5Z" stroke="#285AD6" stroke-width="3" stroke-miterlimit="10"/>
<path id="Vector_2" d="M8.08691 17.2299L24.6112 33.5C26.2971 35.16 29.0393 35.16 30.7151 33.5L47.2698 17.2" stroke="#285AD6" stroke-width="3" stroke-miterlimit="10" stroke-linecap="round"/>
<path id="Vector_3" d="M19.6141 30.5698L3.03906 46.8798" stroke="#285AD6" stroke-width="3" stroke-miterlimit="10" stroke-linecap="round"/>
<path id="Vector_4" d="M52.2666 46.8299L34.7979 29.6299" stroke="#285AD6" stroke-width="3" stroke-miterlimit="10" stroke-linecap="round"/>
<path id="Vector_5" d="M54.8564 18.6099C60.1571 18.6099 64.4541 14.379 64.4541 9.15994C64.4541 3.94087 60.1571 -0.290039 54.8564 -0.290039C49.5558 -0.290039 45.2588 3.94087 45.2588 9.15994C45.2588 14.379 49.5558 18.6099 54.8564 18.6099Z" fill="#FFC600" stroke="white" stroke-width="3" stroke-miterlimit="10"/>
</g>
<defs>
<clipPath id="clip0_3212_7283">
<rect width="65" height="52" fill="white" transform="translate(0.5)"/>
</clipPath>
</defs>
</svg>
