    <svg xmlns="http://www.w3.org/2000/svg" width="25" height="25" viewBox="0 0 25 25" fill="none">
        <path d="M15.5 22.5652C17.917 21.8446 19.9939 20.2781 21.3508 18.1521C22.7078 16.0261 23.2541 13.4828 22.89 10.987C22.5259 8.49134 21.2756 6.21009 19.3678 4.56043C17.46 2.91076 15.0222 2.00293 12.5 2.00293C9.9779 2.00293 7.54004 2.91076 5.63223 4.56043C3.72442 6.21009 2.47414 8.49134 2.11002 10.987C1.74591 13.4828 2.29228 16.0261 3.64923 18.1521C5.00618 20.2781 7.08303 21.8446 9.50002 22.5652" stroke="#545454" stroke-width="1.20833" stroke-linecap="round" stroke-linejoin="round"/>
        <path d="M12.5 6V15" stroke="#545454" stroke-width="1.20833" stroke-linecap="round" stroke-linejoin="round"/>
        <path d="M12.5 19.5C13.0523 19.5 13.5 19.0523 13.5 18.5C13.5 17.9477 13.0523 17.5 12.5 17.5C11.9477 17.5 11.5 17.9477 11.5 18.5C11.5 19.0523 11.9477 19.5 12.5 19.5Z" stroke="#545454" stroke-width="1.20833" stroke-linecap="round" stroke-linejoin="round"/>
    </svg>