<svg xmlns="http://www.w3.org/2000/svg" width="24" height="22" viewBox="0 0 24 22" fill="none">
  <path d="M15 21.065C17.417 20.3444 19.4939 18.7779 20.8508 16.6519C22.2078 14.5259 22.7541 11.9825 22.39 9.4868C22.0259 6.9911 20.7756 4.70984 18.8678 3.06018C16.96 1.41052 14.5222 0.502686 12 0.502686C9.4779 0.502686 7.04004 1.41052 5.13223 3.06018C3.22442 4.70984 1.97414 6.9911 1.61002 9.4868C1.24591 11.9825 1.79228 14.5259 3.14923 16.6519C4.50618 18.7779 6.58303 20.3444 9.00002 21.065M12 4.49999V13.5M13 17C13 17.5523 12.5523 18 12 18C11.4477 18 11 17.5523 11 17C11 16.4477 11.4477 16 12 16C12.5523 16 13 16.4477 13 17Z" stroke="inherit" stroke-linecap="round" stroke-linejoin="round"/>
</svg>