<svg width="24" height="24" viewBox="0 0 24 24" fill="currentColor" xmlns="http://www.w3.org/2000/svg">
  <path d="M7.03017 0.083926C5.75336 0.144167 4.88143 0.347929 4.11918 0.647452C3.33029 0.954895 2.66165 1.36746 1.99636 2.03515C1.33107 2.70283 0.921389 3.37196 0.616106 4.16205C0.320663 4.92598 0.120501 5.79862 0.0641001 7.07616C0.00769954 8.35369 -0.00478059 8.76433 0.00145947 12.0231C0.00769954 15.2818 0.0220997 15.6903 0.0840203 16.9705C0.144981 18.2471 0.348023 19.1188 0.647546 19.8812C0.955469 20.6701 1.36755 21.3385 2.03548 22.0041C2.70341 22.6696 3.37205 23.0783 4.16406 23.3841C4.92727 23.679 5.80016 23.8802 7.07745 23.9361C8.35474 23.992 8.76587 24.005 12.0237 23.9987C15.2815 23.9925 15.6916 23.9781 16.9715 23.9174C18.2515 23.8566 19.1186 23.6522 19.8813 23.3541C20.6702 23.0454 21.3391 22.6341 22.0042 21.9659C22.6692 21.2977 23.0787 20.6281 23.3837 19.8376C23.6794 19.0744 23.8803 18.2015 23.9357 16.9251C23.9916 15.6442 24.0048 15.2353 23.9986 11.977C23.9923 8.71873 23.9777 8.31025 23.917 7.03056C23.8563 5.75086 23.653 4.88181 23.3537 4.11885C23.0453 3.32996 22.6337 2.66203 21.966 1.99603C21.2983 1.33002 20.6282 0.920815 19.8379 0.616491C19.0742 0.321048 18.2018 0.119686 16.9245 0.0644858C15.6472 0.00928523 15.2361 -0.00487492 11.9771 0.00136515C8.71811 0.00760521 8.3101 0.0215254 7.03017 0.083926ZM7.17033 21.7773C6.00032 21.7264 5.36503 21.532 4.94167 21.3693C4.38102 21.1533 3.98166 20.8921 3.55974 20.4743C3.13781 20.0564 2.87861 19.6556 2.65973 19.0962C2.49532 18.6728 2.29732 18.0383 2.2426 16.8683C2.18308 15.6037 2.1706 15.224 2.16364 12.0202C2.15668 8.81641 2.16892 8.43721 2.22436 7.17216C2.27428 6.00311 2.46988 5.3671 2.63237 4.94398C2.84837 4.38261 3.10853 3.98397 3.52734 3.56228C3.94614 3.1406 4.34574 2.88091 4.90567 2.66203C5.32855 2.49691 5.96312 2.30059 7.13265 2.24491C8.39818 2.18491 8.77739 2.17291 11.9807 2.16595C15.184 2.15899 15.5642 2.17099 16.8302 2.22667C17.9992 2.27755 18.6355 2.47123 19.0581 2.63467C19.619 2.85067 20.0181 3.11012 20.4398 3.52964C20.8615 3.94917 21.1214 4.34733 21.3403 4.90846C21.5057 5.33014 21.702 5.96447 21.7572 7.13472C21.8174 8.40025 21.8311 8.77969 21.8369 11.9828C21.8426 15.1858 21.8314 15.5662 21.7759 16.8308C21.7248 18.0008 21.5309 18.6364 21.3679 19.0602C21.1519 19.6206 20.8915 20.0202 20.4725 20.4417C20.0534 20.8631 19.6543 21.1228 19.0941 21.3417C18.6717 21.5065 18.0364 21.7033 16.8679 21.759C15.6023 21.8185 15.2231 21.831 12.0186 21.838C8.81411 21.8449 8.4361 21.832 7.17057 21.7773M16.9531 5.58646C16.9535 5.87129 17.0385 6.14958 17.1971 6.38613C17.3558 6.62269 17.581 6.80688 17.8443 6.91542C18.1077 7.02396 18.3973 7.05197 18.6765 6.9959C18.9558 6.93983 19.2122 6.80221 19.4132 6.60043C19.6142 6.39866 19.7509 6.1418 19.806 5.86234C19.861 5.58288 19.8319 5.29338 19.7224 5.03044C19.6129 4.7675 19.4279 4.54295 19.1908 4.38517C18.9536 4.22739 18.675 4.14348 18.3902 4.14405C18.0084 4.14481 17.6425 4.29719 17.373 4.56768C17.1035 4.83818 16.9524 5.20463 16.9531 5.58646ZM5.83856 12.012C5.84528 15.4153 8.60915 18.1679 12.0117 18.1614C15.4142 18.1549 18.1687 15.3913 18.1622 11.988C18.1557 8.58481 15.3911 5.8315 11.9881 5.83822C8.58515 5.84494 5.83208 8.60929 5.83856 12.012ZM8.00002 12.0077C7.99846 11.2166 8.23153 10.4427 8.66976 9.78405C9.108 9.12537 9.73172 8.61143 10.462 8.30722C11.1924 8.00302 11.9965 7.92221 12.7727 8.07502C13.549 8.22783 14.2625 8.60739 14.823 9.16571C15.3836 9.72403 15.766 10.436 15.9218 11.2117C16.0777 11.9873 16.0001 12.7917 15.6988 13.5233C15.3975 14.2548 14.886 14.8805 14.2291 15.3214C13.5721 15.7622 12.7992 15.9984 12.0081 15.9999C11.4827 16.001 10.9623 15.8986 10.4766 15.6986C9.99086 15.4986 9.54928 15.2048 9.17709 14.8341C8.80489 14.4633 8.50938 14.0229 8.30741 13.538C8.10545 13.053 8.001 12.533 8.00002 12.0077Z"/>
</svg>
