<svg width="24" height="24" viewBox="0 0 24 24" fill="currentColor" xmlns="http://www.w3.org/2000/svg">
  <path d="M22.1613 0H1.83869C0.824242 0 0 0.824242 0 1.83869V22.1613C0 23.1776 0.824242 24 1.83869 24H22.1613C23.1776 24 24 23.1758 24 22.1613V1.83869C24 0.822378 23.1758 0 22.1613 0ZM7.13846 20.4289H3.59907V9.02751H7.13846V20.4289ZM5.35758 7.42005C4.22378 7.42005 3.30629 6.50256 3.30629 5.36876C3.30629 4.23497 4.22378 3.31748 5.35758 3.31748C6.49138 3.31748 7.40886 4.23497 7.40886 5.36876C7.40886 6.50256 6.49138 7.42005 5.35758 7.42005ZM20.4364 20.4289H16.897V14.3235C16.897 14.3235 17.1636 11.8191 15.0415 11.8191C12.9193 11.8191 12.9082 14.0065 12.9175 14.2881V14.3179V20.4289H9.37809V9.02751H12.7534V10.6275C12.7534 10.6275 13.6895 8.72354 16.1343 8.72354C19.3753 8.72354 20.4326 10.3963 20.4326 14.3235V20.4289H20.4364Z" />
</svg>
