<svg xmlns="http://www.w3.org/2000/svg" width="22" height="23" viewBox="0 0 22 23" fill="none">
  <path d="M6.8916 19.8607C9.1897 19.8607 10.884 17.2525 11.3949 15.4385C11.4777 15.1446 11.6393 14.876 11.8634 14.6599L15.0541 11.5846C15.6781 10.9832 15.6781 10.0081 15.0541 9.40664L15.0521 9.40469C14.4281 8.80326 13.4164 8.80326 12.7923 9.40469L9.53707 12.5442C9.50072 12.5792 9.46435 12.6104 9.42397 12.6376C8.96152 12.9588 8.29916 12.696 8.11943 12.1744L7.92355 11.6099" stroke="#275AD6" stroke-miterlimit="10" stroke-linecap="round" stroke-linejoin="round"/>
  <path d="M0.5 16.3416L1.86917 15.02L8.26063 21.1803L6.89145 22.5" stroke="#275AD6" stroke-miterlimit="10" stroke-linecap="round" stroke-linejoin="round"/>
  <path d="M9.6295 7.54004H5.78653C4.94443 7.5381 4.21137 8.09087 4.00943 8.87916L2.32324 15.4618" stroke="#275AD6" stroke-miterlimit="10" stroke-linecap="round" stroke-linejoin="round"/>
  <path d="M18.7593 18.1012V0.5" stroke="#275AD6" stroke-miterlimit="10" stroke-linecap="round" stroke-linejoin="round"/>
  <path d="M16.021 18.1012V0.5" stroke="#275AD6" stroke-miterlimit="10" stroke-linecap="round" stroke-linejoin="round"/>
  <path d="M13.2808 7.10006V3.14111" stroke="#275AD6" stroke-miterlimit="10" stroke-linecap="round" stroke-linejoin="round"/>
  <path d="M12.1884 18.1012H20.1308C20.8881 18.1012 21.5 17.5095 21.5 16.7815V1.8216C21.5 1.09171 20.8861 0.501953 20.1308 0.501953H11.001C10.2437 0.501953 9.63184 1.09365 9.63184 1.8216V9.96722" stroke="#275AD6" stroke-miterlimit="10" stroke-linecap="round" stroke-linejoin="round"/>
</svg>