<svg width="24" height="24" viewBox="0 0 24 24" fill="none" xmlns="http://www.w3.org/2000/svg">
  <path d="M6 22.5V1.5H18V22.5H9.6" stroke="currentColor" stroke-linecap="round" stroke-linejoin="round"/>
  <path d="M9.75 3.5H12" stroke="currentColor" stroke-linecap="round" stroke-linejoin="round"/>
  <path d="M13.75 4C14.0261 4 14.25 3.77614 14.25 3.5C14.25 3.22386 14.0261 3 13.75 3C13.4739 3 13.25 3.22386 13.25 3.5C13.25 3.77614 13.4739 4 13.75 4Z" fill="currentColor"/>
  <path d="M12 20.5C12.8284 20.5 13.5 19.8284 13.5 19C13.5 18.1716 12.8284 17.5 12 17.5C11.1716 17.5 10.5 18.1716 10.5 19C10.5 19.8284 11.1716 20.5 12 20.5Z" stroke="currentColor" stroke-miterlimit="10"/>
</svg>
