<svg width="62" height="62" viewBox="0 0 62 62" fill="none" xmlns="http://www.w3.org/2000/svg">
<g id="Operator Container">
<g id="Operator Icon">
<path id="Vector" d="M24.2847 41.154V43.1158V38.9185" stroke="#2659D9" stroke-width="2" stroke-miterlimit="10" stroke-linecap="round"/>
<path id="Vector_2" d="M61 61.0001C61 55.936 57.6539 51.4649 52.7952 49.9594L41.7944 46.6289" stroke="#2659D9" stroke-width="2" stroke-miterlimit="10" stroke-linecap="round"/>
<path id="Vector_3" d="M37.6689 41.1542V42.4772V38.8274" stroke="#2659D9" stroke-width="2" stroke-miterlimit="10" stroke-linecap="round"/>
<path id="Vector_4" d="M39.5026 36.8198C38.0817 38.1885 36.4316 39.3747 34.9189 40.2872C32.4896 41.7927 29.4644 41.7927 27.035 40.2872C23.6431 38.1885 19.2886 34.7212 19.2886 30.7976V21.308C19.2886 18.7075 21.6263 16.6089 24.239 17.0651C26.1183 17.3844 28.4559 17.2932 30.9769 16.107C33.8647 14.7839 36.294 14.3277 38.2192 14.2365C40.6485 14.1452 42.6653 16.107 42.6653 18.5706V30.8432C42.6653 32.0294 42.2528 33.17 41.6569 34.2193" stroke="#2659D9" stroke-width="2" stroke-miterlimit="10" stroke-linecap="round" stroke-linejoin="round"/>
<path id="Vector_5" d="M20.1597 46.6743L26.5309 52.5597L30.9771 47.9974L23.735 42.0664L20.1597 46.6743Z" stroke="#2659D9" stroke-width="2" stroke-miterlimit="10" stroke-linecap="round"/>
<path id="Vector_6" d="M41.7946 46.6743L35.4233 52.5597L30.9771 47.9974L38.2652 42.0664L41.7946 46.6743Z" stroke="#2659D9" stroke-width="2" stroke-miterlimit="10" stroke-linecap="round"/>
<path id="Vector_7" d="M45.9658 21.8099L46.47 18.7075C46.9283 16.107 46.8366 13.4152 45.8741 10.906C43.6281 5.02061 37.8069 0.823295 31.0689 1.00579C24.2851 0.823295 18.5096 4.97499 16.2636 10.906C15.3469 13.3696 15.2552 16.0614 15.6677 18.7075L16.172 21.8099" stroke="#2659D9" stroke-width="2" stroke-miterlimit="10" stroke-linecap="round"/>
<path id="Vector_8" d="M42.6655 31.8922H45.92C46.8367 31.8922 47.6159 31.1167 47.6159 30.2042V23.4976C47.6159 22.5852 46.8367 21.8096 45.92 21.8096H42.6655V31.8922Z" stroke="#FFC510" stroke-width="2" stroke-miterlimit="10" stroke-linecap="round"/>
<path id="Vector_9" d="M19.2887 31.8922H16.0343C15.1176 31.8922 14.3384 31.1167 14.3384 30.2042V23.4976C14.3384 22.5852 15.1176 21.8096 16.0343 21.8096H19.2887V31.8922Z" stroke="#FFC510" stroke-width="2" stroke-miterlimit="10" stroke-linecap="round"/>
<path id="Vector_10" d="M30.9771 38.462C31.939 38.462 32.7189 37.6858 32.7189 36.7283C32.7189 35.7708 31.939 34.9946 30.9771 34.9946C30.0151 34.9946 29.2354 35.7708 29.2354 36.7283C29.2354 37.6858 30.0151 38.462 30.9771 38.462Z" stroke="#FFC510" stroke-width="2" stroke-miterlimit="10" stroke-linecap="round"/>
<path id="Vector_11" d="M46.7448 31.8926C46.7448 34.5387 44.5905 36.7286 41.8861 36.7286H32.7188" stroke="#FFC510" stroke-width="2" stroke-miterlimit="10" stroke-linecap="round"/>
<path id="Vector_12" d="M47.6618 61.0001H1C1 55.936 4.34604 51.4649 9.20473 49.9594L20.2055 46.6289" stroke="#2659D9" stroke-width="2" stroke-miterlimit="10" stroke-linecap="round" stroke-linejoin="round"/>
</g>
</g>
</svg>
