<svg width="48" height="48" viewBox="0 0 48 48" fill="none" xmlns="http://www.w3.org/2000/svg">
<g id="Email Container">
<path id="Pencil" d="M44.3317 3.67965C38.2346 -2.44868 34.7393 0.891658 34.6079 1.04947L4.38541 31.2966C4.24146 31.4352 4.13324 31.6067 4.07005 31.7963L0.0491402 46.3412C-0.0145382 46.5628 -0.0163621 46.7977 0.0438657 47.0202C0.104094 47.2428 0.224073 47.4446 0.390786 47.6037C0.513991 47.7369 0.664982 47.8413 0.833035 47.9095C1.00109 47.9777 1.18208 48.008 1.36316 47.9983H1.70481L16.159 44.053C16.3485 43.9897 16.5199 43.8814 16.6584 43.7374L46.8809 13.4902C47.1174 13.2798 50.455 9.78168 44.3317 3.67965ZM4.09633 41.6858L6.30388 33.5322H9.24729V37.4775C9.24729 37.8263 9.38573 38.1608 9.63216 38.4074C9.87858 38.6541 10.2128 38.7926 10.5613 38.7926H14.5034V41.7384L6.35644 43.9478L4.09633 41.6858ZM15.8174 36.1624H11.8753V32.2172C11.8753 31.8684 11.7369 31.5339 11.4905 31.2872C11.244 31.0406 10.9098 30.9021 10.5613 30.9021H8.48516L27.6436 11.728L33.2939 17.3566C33.4119 17.4824 33.5543 17.5827 33.7125 17.6512C33.8707 17.7198 34.0413 17.7551 34.2137 17.7551C34.3861 17.7551 34.5566 17.7198 34.7148 17.6512C34.8731 17.5827 35.0155 17.4824 35.1335 17.3566C35.2592 17.2385 35.3594 17.0959 35.4279 16.9376C35.4964 16.7793 35.5317 16.6086 35.5317 16.436C35.5317 16.2635 35.4964 16.0928 35.4279 15.9345C35.3594 15.7762 35.2592 15.6336 35.1335 15.5155L29.5095 9.86059L31.5857 7.78274L40.2319 16.436L17.1314 39.5554V37.4775C17.1314 37.1287 16.993 36.7942 16.7466 36.5476C16.5001 36.301 16.1659 36.1624 15.8174 36.1624ZM45.1201 11.5702L42.0978 14.5686L33.4516 5.91531L36.4213 2.9432C37.052 2.39086 39.0493 2.20675 42.492 5.57339C45.9348 8.94002 45.6194 10.939 45.1201 11.5702Z" fill="#2659D9"/>
</g>
</svg>
