<svg width="24" height="24" viewBox="0 0 24 24" fill="none" xmlns="http://www.w3.org/2000/svg">
<path d="M4.73003 10.6125L7.05002 8.2925L3.16003 4.4025C1.8043 6.69478 1.24964 9.37292 1.58339 12.0151C1.91715 14.6573 3.12035 17.1134 5.0035 18.9965C6.88666 20.8797 9.34274 22.0829 11.9849 22.4166C14.6271 22.7504 17.3052 22.1957 19.5975 20.84L15.7075 16.95L12.8575 19.8C10.6892 19.4467 8.68707 18.4199 7.13502 16.865C6.1752 15.8988 5.41118 14.7562 4.88503 13.5M22.5 12C22.3781 9.25657 21.2343 6.65798 19.2937 4.71501C17.353 2.77205 14.7558 1.62524 12.0125 1.5M19.25 12.5C19.1314 10.4854 18.2785 8.58417 16.8526 7.15602C15.4268 5.72787 13.5269 4.87188 11.5125 4.75M16.115 13C16 11.6842 15.4258 10.4507 14.493 9.51555C13.5602 8.58041 12.3281 8.00321 11.0125 7.885" stroke="#2659D9" stroke-linecap="round" stroke-linejoin="round"/>
</svg>
