<svg width="24" height="24" viewBox="0 0 24 24" fill="none" xmlns="http://www.w3.org/2000/svg">
<path d="M6 17.5H1.5V7H22.5V17.5H18M4.875 15.5H19.125M1.5 13.5H22.5M3.5 11.5H4.5M20.5 10.5C20.5 10.6978 20.4414 10.8911 20.3315 11.0556C20.2216 11.22 20.0654 11.3482 19.8827 11.4239C19.7 11.4996 19.4989 11.5194 19.3049 11.4808C19.1109 11.4422 18.9327 11.347 18.7929 11.2071C18.653 11.0673 18.5578 10.8891 18.5192 10.6951C18.4806 10.5011 18.5004 10.3 18.5761 10.1173C18.6518 9.93459 18.78 9.77841 18.9444 9.66853C19.1089 9.55865 19.3022 9.5 19.5 9.5M6 21.5V15.5H18V21.5H9.25M8 17.5H16M8 19.5H16M6.25 11.5H7.25M4.5 2.5H19.5V7H4.5V2.5Z" stroke="#2659D9" stroke-linecap="round" stroke-linejoin="round"/>
</svg>
