<svg width="24" height="24" viewBox="0 0 24 24" fill="none" xmlns="http://www.w3.org/2000/svg">
<path d="M11.875 13.75C13.0864 13.75 14.2706 13.3908 15.2779 12.7178C16.2851 12.0447 17.0702 11.0881 17.5338 9.96894C17.9973 8.84974 18.1186 7.61821 17.8823 6.43007C17.646 5.24194 17.0626 4.15057 16.206 3.29397C15.3494 2.43738 14.2581 1.85403 13.0699 1.61769C11.8818 1.38136 10.6503 1.50265 9.53106 1.96624C8.41187 2.42983 7.45527 3.21488 6.78225 4.22213C6.10922 5.22939 5.75 6.41359 5.75 7.625C5.75 9.24945 6.39531 10.8074 7.54397 11.956C8.69263 13.1047 10.2505 13.75 11.875 13.75V13.75Z" stroke="currentColor" stroke-linecap="round" stroke-linejoin="round"/>
<path d="M9.5 22.5H3.25C3.25 20.1794 4.17187 17.9538 5.81282 16.3128C7.45376 14.6719 9.67936 13.75 12 13.75C14.3206 13.75 16.5462 14.6719 18.1872 16.3128C19.8281 17.9538 20.75 20.1794 20.75 22.5H14.5" stroke="currentColor" stroke-linecap="round" stroke-linejoin="round"/>
</svg>
