<?xml version="1.0" encoding="UTF-8"?><svg id="h" xmlns="http://www.w3.org/2000/svg" xmlns:xlink="http://www.w3.org/1999/xlink" width="96px" height="96px" viewBox="0 0 96 96"><defs><style>.ao,.ap,.aq,.ar,.as{fill:none;}.ao,.at,.au,.av{stroke-width:0px;}.ap{stroke:#ffc400;}.ap,.aq,.ar{stroke-linejoin:round;stroke-width:2px;}.ap,.aq,.ar,.as{stroke-linecap:round;}.aq{stroke:#78bfff;}.ar{stroke:#275ada;}.aw{clip-path:url(#i);}.at{fill:#78bfff;}.au{fill:#275ada;}.av{fill:#fff;}.as{stroke:#b9b9b7;stroke-miterlimit:10;stroke-width:1.450000047683716px;}</style><clipPath id="i"><rect class="ao" x="10" y="5.717948717949184" width="70" height="82.564102564101631"/></clipPath></defs><g class="aw"><g id="j"><path id="k" class="at" d="m27.935166236682562,56.250500996908158c5.897052226921005,0,10.677513220371111-4.750127547828015,10.677513220371111-10.609756371914045,0-5.859628824087849-4.780460993450106-10.609756371914045-10.677513220371111-10.609756371914045-5.896961505597574,0-10.677458445232332,4.750127547826196-10.677458445232332,10.609756371914045,0,5.85962882408603,4.780496939634759,10.609756371914045,10.677458445232332,10.609756371914045Z"/><path id="l" class="ar" d="m21.525320273180114,54.127437102488329c-2.027935737220105-1.511821257761767-3.448352691455511-3.691334357627056-4.007059977606332-6.14851291362902-.558698727532828-2.45718197944916-.219297409057617-5.031743660952998.957510532478409-7.263039809007751,1.176780553963908-2.231296148056572,3.114255147102085-3.973754980625017,5.465626961144153-4.915524507179725,2.351371814043887-.941858536158179,4.963269600502827-1.021552941738264,7.368396367783134-.22489987886911,2.405128479003906.796564053265683,4.446526062794874,2.417603517189491,5.758936710846683,4.572885464398496s1.810126671423859,4.704359494722667,1.404217206514659,7.190976265150312c-.405820455307548,2.486613346980448-1.688883610260746,4.748600690792955-3.61953784258003,6.381307259583991-1.930743241920936,1.632703145343839-4.383077621459961,2.529423542511722-6.918243995078228,2.529872013972636v10.609752948466848"/><path id="m" class="ar" d="m27.935166236682562,52.009936308249962v-13.260784149169922"/><path id="n" class="ar" d="m23.662025745097708,46.174449627216745l4.273231212910105,4.240472255607528"/><path id="o" class="ar" d="m27.935166236682562,46.702321077003944l3.19927044403812-3.178988236646546"/><path id="p" class="ar" d="m27.935345967611283,42.461756388345748l-2.136704616057614-2.12306389441801"/><path id="q" class="av" d="m79.118181864419967,40.05779530451764v27.639320080097605h-45.513643118050823v-20.938704564021464l-1.684397183931651-.836858015793041v-5.8637575002831h47.198040301982473Z"/><path id="r" class="au" d="m62.957690801375065,52.054896428035136h-4.765022962519652c-.546361483060537,0-.989245879345617.440012124869099-.989245879345617.982871422400422v14.041552421374945c0,.542766864482473.442884396285081.982871422400422.989245879345617.982871422400422h4.765022962519652c.546269050011688,0,.989156869742146-.440104557917948.989156869742146-.982871422400422v-14.041552421374945c0-.542859297531322-.442887819730458-.982871422400422-.989156869742146-.982871422400422Z"/><path id="s" class="as" d="m39.505806947365272,53.459115346273393h12.6389493697734"/><path id="t" class="as" d="m39.505806947365272,55.132834801306672h12.6389493697734"/><path id="u" class="as" d="m39.505806947365272,56.806461823292921h12.6389493697734"/><path id="v" class="as" d="m68.158066578400394,53.459115346273393h3.374538910695264"/><path id="w" class="as" d="m68.158066578400394,55.132834801306672h3.374538910695264"/><path id="x" class="as" d="m68.158066578400394,56.806461823292921h3.374538910695264"/><path id="y" class="aq" d="m59.984756371914045,20.927781276213864c0-.662934963520456.265012398744148-1.298678349225156.736705095339858-1.767409764803233.471781706199181-.468730559716278,1.11156561435746-.732038082220242,1.778627542349568-.732038082220242.178590921253999.001166539313999.356551928396584.019922745532313.531281202267564.056179609053288v-.561615503751455c-.011396652613257-1.370025536953108.491706163455092-2.695000232793973,1.41103842319535-3.715967765221649.919424692789107-1.020986361379983,2.18893784742977-1.664591263501279,3.56039780836727-1.805021885113092,1.371555817433546-.14042206299564,2.746425530849592.232435739957509,3.85601239326752,1.045683530661336,1.109593709310502.81325592138819,1.874117728992132,2.008434075574769,2.14406331380269,3.351985246707045.497180254031264-.265550735670331,1.052155127890728-.406268926766643,1.616551325871114-.410038141104451.935490926105558,0,1.832563938238309.36920498579093,2.494069612943349,1.026486983666473.661498827810647.657281997875543,1.033038603953173,1.548705467810578,1.033038603953173,2.478269552573693v4.218037556378476"/><path id="z" class="aq" d="m43.750678331423842,24.146077522864289h16.013399270865193"/><path id="aa" class="aq" d="m63.946936680720682,24.146077522864289h11.796706273005839"/><path id="ab" class="aq" d="m71.532605489095658,24.146077522864289l-1.684397183931651-1.673717743311499"/><path id="ac" class="ap" d="m55.335141206398475,22.196486497536171c-.308897556402371-1.917550991742246-1.278486007298852-3.668986100416078-2.742923345320378-4.954922382647055-1.464437338023345-1.285936282230978-3.332896110339789-2.026589466975565-5.286078330798773-2.095243258354458-1.953089787410136-.068743656844163-3.869651403181706.538640755872621-5.421948066124969,1.71849984389155-1.552382249097718,1.17976922255184-2.644204848851587,2.858602450443868-3.088794121375031,4.749679932227082-.444679993848695,1.890986760456144-.214487467055733,3.876832081721659.651088127722687,5.617948923354561.865577306503837,1.741115129911122,2.312784439478492,3.12944754576165,4.094373262845693,3.927716475267516,1.781588823367201.798359650831117,3.786821120826062.957026114831024,5.673140012300792.448988400972667,1.886322314923746-.508039425581956,3.536437107966776-1.651372909545898,4.668461237199153-3.234359056521498"/><path id="ad" class="ap" d="m43.959244948167907,12.988400288117191v-5.02686182657817"/><path id="ae" class="ap" d="m35.920999967134776,12.464835961660356l-3.628871868817441-3.605861602685764"/><path id="af" class="ap" d="m35.916691560010804,22.472359779552789h-4.245051114985472"/><path id="ag" class="ap" d="m36.344949282132802,32.192307692308532l-4.052821183815468,4.027064885847722"/><path id="ah" class="ap" d="m44.856680845603478,32.192307692308532v5.026896061041043"/><path id="ai" class="ap" d="m54.620243463759834,30.172628451617129l4.052819472093688,4.027153895451193"/><path id="aj" class="ap" d="m52.035719553628951,12.880465446374728l4.052819472093688-4.021491087400136"/><path id="ak" class="ar" d="m74.901488866560612,47l-43.229937431138751.202103150197217v-6.942115685878889h47.446630428998105v30.784655839968764s2.362766754933546,24.792022705078125-32.026706108679718,13.401231032150463c-22.756821559025411-7.53747695531456-36.243556799032376-5.863760923726659-36.243556799032376-5.863760923726659"/><path id="al" class="ar" d="m33.367076531434577,49.274729410806685v18.787551293007709h42.376477412688473"/><path id="am" class="at" d="m52.800514025566372,52.054896428035136h-14.374232658974506c-.452665182259807,0-.819627810746169.364627838134766-.819627810746169.814335162822317v9.256242116292924c0,.449796334291023.366962628486363.814335162822317.819627810746169.814335162822317h14.374232658974506c.452576172656336,0,.819538801144517-.364538828531295.819538801144517-.814335162822317v-9.256242116292924c0-.449707324687552-.366962628488182-.814335162822317-.819538801144517-.814335162822317Z"/><path id="an" class="at" d="m72.397374862279321,52.054896428035136h-5.104170090113257c-.452665182259807,0-.819627810746169.364627838134766-.819627810746169.814335162822317v9.256242116292924c0,.449796334291023.366962628486363.814335162822317.819627810746169.814335162822317h5.104170090113257c.452661758814429,0,.819627810747988-.364538828531295.819627810747988-.814335162822317v-9.256242116292924c0-.449707324687552-.366966051933559-.814335162822317-.819627810747988-.814335162822317Z"/></g></g></svg>