<svg xmlns="http://www.w3.org/2000/svg" width="23" height="23" viewBox="0 0 23 23" fill="none">
<g id="Exclamation">
<path id="Vector" d="M14.5 21.5623C16.917 20.8417 18.9939 19.2752 20.3508 17.1492C21.7078 15.0232 22.2541 12.4798 21.89 9.98412C21.5259 7.48842 20.2756 5.20716 18.3678 3.5575C16.46 1.90783 14.0222 1 11.5 1C8.9779 1 6.54004 1.90783 4.63223 3.5575C2.72442 5.20716 1.47414 7.48842 1.11002 9.98412C0.745906 12.4798 1.29228 15.0232 2.64923 17.1492C4.00618 19.2752 6.08303 20.8417 8.50002 21.5623" stroke="#545454" stroke-width="1.20833" stroke-linecap="round" stroke-linejoin="round"/>
<path id="Vector_2" d="M11.5 5V14" stroke="#545454" stroke-width="1.20833" stroke-linecap="round" stroke-linejoin="round"/>
<path id="Vector_3" d="M11.5 18.5C12.0523 18.5 12.5 18.0523 12.5 17.5C12.5 16.9477 12.0523 16.5 11.5 16.5C10.9477 16.5 10.5 16.9477 10.5 17.5C10.5 18.0523 10.9477 18.5 11.5 18.5Z" stroke="#545454" stroke-width="1.20833" stroke-linecap="round" stroke-linejoin="round"/>
</g>
</svg>