<svg width="58" height="80" viewBox="0 0 58 80" fill="none" xmlns="http://www.w3.org/2000/svg">
<path d="M25.17 6.58008H14" stroke="#2659D9" stroke-width="2" stroke-linecap="round" stroke-linejoin="round"/>
<path d="M26.9998 47.4697H19.5898" stroke="#2659D9" stroke-width="2" stroke-linecap="round" stroke-linejoin="round"/>
<path d="M26.9998 53.0498H19.5898" stroke="#2659D9" stroke-width="2" stroke-linecap="round" stroke-linejoin="round"/>
<path d="M38.18 71.64V79H1V1H38.18V14" stroke="#2659D9" stroke-width="2" stroke-linecap="round" stroke-linejoin="round"/>
<path d="M44.6801 66.0604C47.0702 66.0604 49.4065 65.3514 51.3935 64.0232C53.3805 62.6949 54.9288 60.8071 55.8425 58.5986C56.7562 56.3901 56.9943 53.9602 56.5265 51.6163C56.0588 49.2725 54.9063 47.1201 53.2149 45.4315C51.5234 43.7429 49.3691 42.5939 47.0245 42.1301C44.6799 41.6662 42.2504 41.9083 40.0434 42.8257C37.8364 43.7431 35.9512 45.2945 34.6262 47.2837C33.3013 49.2728 32.5962 51.6103 32.6001 54.0004C32.6054 57.2007 33.8805 60.2682 36.1453 62.5293C38.4102 64.7904 41.4798 66.0604 44.6801 66.0604V66.0604Z" stroke="#2659D9" stroke-width="2" stroke-linecap="round" stroke-linejoin="round"/>
<path d="M56.7698 32.5996H19.5898" stroke="#2659D9" stroke-width="2" stroke-linecap="round" stroke-linejoin="round"/>
<path d="M43.88 41.9004V53.1704L34.21 59.6104" stroke="#2659D9" stroke-width="2" stroke-linecap="round" stroke-linejoin="round"/>
<path d="M43.8802 53.1697L38.1802 47.4697" stroke="#2659D9" stroke-width="2" stroke-linecap="round" stroke-linejoin="round"/>
<path d="M38.1802 21.4502V30.7402" stroke="#2659D9" stroke-width="2" stroke-linecap="round" stroke-linejoin="round"/>
<path d="M45.6099 17.73V30.73" stroke="#2659D9" stroke-width="2" stroke-linecap="round" stroke-linejoin="round"/>
<path d="M30.7402 25.1699V32.5999" stroke="#2659D9" stroke-width="2" stroke-linecap="round" stroke-linejoin="round"/>
<path d="M23.3101 27V32.6" stroke="#2659D9" stroke-width="2" stroke-linecap="round" stroke-linejoin="round"/>
<path d="M53.0498 32.6V10.29" stroke="#2659D9" stroke-width="2" stroke-linecap="round" stroke-linejoin="round"/>
</svg>
