<svg width="97" height="97" viewBox="0 0 97 97" fill="none" xmlns="http://www.w3.org/2000/svg">
<g clip-path="url(#clip0_3053_25080)">
<path d="M23.3335 78.1348C31.5874 78.1348 37.674 68.806 39.5375 62.3181C39.8329 61.2603 40.4021 60.2981 41.1883 59.5276L52.6526 48.5264C53.1836 48.0248 53.6065 47.4209 53.8955 46.7515C54.1845 46.0821 54.3335 45.3612 54.3335 44.6327C54.3335 43.9042 54.1845 43.1833 53.8955 42.514C53.6065 41.8446 53.1836 41.2407 52.6526 40.739C51.558 39.7088 50.1084 39.1348 48.6016 39.1348C47.0947 39.1348 45.6451 39.7088 44.5506 40.739L32.8331 51.9618C32.7105 52.0868 32.5746 52.1982 32.428 52.2942C32.0232 52.5459 31.5665 52.7034 31.092 52.7549C30.6175 52.8064 30.1374 52.7507 29.6875 52.5918C29.2377 52.433 28.8297 52.1751 28.4941 51.8375C28.1584 51.4999 27.9038 51.0913 27.7491 50.642L27.0402 48.6272" stroke="#2659D9" stroke-width="2" stroke-linecap="round" stroke-linejoin="round"/>
<path d="M1.3335 65.7339L6.09185 61.1348L28.3335 82.5454L23.5653 87.1348" stroke="#2659D9" stroke-width="2" stroke-linecap="round" stroke-linejoin="round"/>
<path d="M33.3335 34.1353H19.6667C18.2334 34.117 16.8346 34.5726 15.6909 35.4305C14.5472 36.2883 13.7235 37.4995 13.3497 38.8732L7.3335 62.1348" stroke="#2659D9" stroke-width="2" stroke-linecap="round" stroke-linejoin="round"/>
<path d="M65.3335 72.1348V9.13477" stroke="#2659D9" stroke-width="2" stroke-linecap="round" stroke-linejoin="round"/>
<path d="M56.3335 72.1348V9.13477" stroke="#2659D9" stroke-width="2" stroke-linecap="round" stroke-linejoin="round"/>
<path d="M46.3335 32.1348V18.1348" stroke="#2659D9" stroke-width="2" stroke-linecap="round" stroke-linejoin="round"/>
<path d="M42.3763 72.1342H70.4927C71.7547 72.1531 72.9726 71.6663 73.8799 70.7804C74.7872 69.8946 75.3099 68.6817 75.3335 67.4076V13.8623C75.3244 13.2306 75.1918 12.6069 74.9434 12.027C74.6949 11.4472 74.3355 10.9226 73.8857 10.4834C73.4359 10.0442 72.9046 9.69909 72.3223 9.4678C71.7401 9.2365 71.1183 9.12362 70.4927 9.13563H38.1743C36.9132 9.11405 35.6953 9.59859 34.7877 10.4829C33.8801 11.3672 33.3571 12.5789 33.3335 13.8522V43.0184" stroke="#2659D9" stroke-width="2" stroke-linecap="round" stroke-linejoin="round"/>
</g>
<defs>
<clipPath id="clip0_3053_25080">
<rect width="96" height="96" fill="white" transform="translate(0.333496 0.134766)"/>
</clipPath>
</defs>
</svg>
