<svg width="180" height="93" viewBox="0 0 180 93" fill="none" xmlns="http://www.w3.org/2000/svg">
<g clip-path="url(#clip0_3043_25359)">
<path d="M114 59.4746H100.5C98.4289 59.4746 96.75 61.1535 96.75 63.2246C96.75 65.2957 98.4289 66.9746 100.5 66.9746H114C116.071 66.9746 117.75 65.2957 117.75 63.2246C117.75 61.1535 116.071 59.4746 114 59.4746Z" fill="#78BFFF"/>
<path d="M60.75 65.4746H24.75V69.9746H60.75V65.4746Z" fill="#78BFFF"/>
<path d="M24.75 68.4746V54.9746H60.75V78.0646C60.75 78.0646 50.25 88.5646 32.25 78.0646C14.25 67.5646 2.25 76.5646 2.25 76.5646" stroke="#275ADA" stroke-width="3" stroke-linecap="round" stroke-linejoin="round"/>
<path d="M57.75 48.9746V22.9746C57.75 21.9137 58.1714 20.8963 58.9216 20.1462C59.6717 19.396 60.6891 18.9746 61.75 18.9746H83.75C84.8109 18.9746 85.8283 19.396 86.5784 20.1462C87.3286 20.8963 87.75 21.9137 87.75 22.9746V67.4746C87.75 68.5355 87.3286 69.5529 86.5784 70.303C85.8283 71.0532 84.8109 71.4746 83.75 71.4746H66.75" stroke="#275ADA" stroke-width="3" stroke-linecap="round" stroke-linejoin="round"/>
<path d="M87.75 14.4746V9.97461C87.75 9.17896 88.0661 8.41591 88.6287 7.8533C89.1913 7.29069 89.9544 6.97461 90.75 6.97461H141.75C142.546 6.97461 143.309 7.29069 143.871 7.8533C144.434 8.41591 144.75 9.17896 144.75 9.97461V66.9746C144.75 66.9746 143.25 116.475 177.75 72.9746" stroke="#275ADA" stroke-width="3" stroke-linecap="round" stroke-linejoin="round"/>
<path d="M87.75 75.9746V77.4746C87.75 78.2703 88.0661 79.0333 88.6287 79.5959C89.1913 80.1585 89.9544 80.4746 90.75 80.4746H98.25" stroke="#275ADA" stroke-width="3" stroke-linecap="round" stroke-linejoin="round"/>
<path d="M102.75 89.4746L104.13 64.7246C104.163 64.1179 104.427 63.5469 104.868 63.1286C105.308 62.7102 105.892 62.4763 106.5 62.4746V62.4746C107.108 62.4763 107.692 62.7102 108.132 63.1286C108.573 63.5469 108.837 64.1179 108.87 64.7246L110.25 84.9746C110.25 84.9746 110.25 80.4746 113.25 80.4746C116.25 80.4746 116.25 84.9746 116.25 84.9746C116.25 84.9746 116.25 80.4746 119.25 80.4746C122.25 80.4746 122.25 84.9746 122.25 84.9746C122.25 84.9746 122.25 80.4746 125.25 80.4746C128.25 80.4746 128.25 84.9746 128.25 84.9746V89.4746" stroke="#275ADA" stroke-width="3" stroke-linecap="round" stroke-linejoin="round"/>
<path d="M132.75 80.4746H138.75" stroke="#275ADA" stroke-width="3" stroke-linecap="round" stroke-linejoin="round"/>
<path d="M29.25 59.4746H36.75" stroke="#275ADA" stroke-linecap="round" stroke-linejoin="round"/>
<path d="M69 21.9746H76.5" stroke="#275ADA" stroke-linecap="round" stroke-linejoin="round"/>
<path d="M111.75 9.97461H119.25" stroke="#275ADA" stroke-linecap="round" stroke-linejoin="round"/>
<path d="M29.25 62.4746H45.75" stroke="#275ADA" stroke-linecap="round" stroke-linejoin="round"/>
<path d="M117.75 42.9746H125.25" stroke="#BABAB8" stroke-miterlimit="10" stroke-linecap="round"/>
<path d="M117.75 45.9746H134.25" stroke="#BABAB8" stroke-miterlimit="10" stroke-linecap="round"/>
<path d="M117.75 48.9746H134.25" stroke="#BABAB8" stroke-miterlimit="10" stroke-linecap="round"/>
<path d="M117.75 21.9746H131.25" stroke="#BABAB8" stroke-miterlimit="10" stroke-linecap="round"/>
<path d="M117.75 24.9746H129.75" stroke="#BABAB8" stroke-miterlimit="10" stroke-linecap="round"/>
<path d="M117.75 27.9746H131.25" stroke="#BABAB8" stroke-miterlimit="10" stroke-linecap="round"/>
<path d="M101.25 24.9746C102.493 24.9746 103.5 23.9673 103.5 22.7246C103.5 21.482 102.493 20.4746 101.25 20.4746C100.007 20.4746 99 21.482 99 22.7246C99 23.9673 100.007 24.9746 101.25 24.9746Z" fill="#FFE35C"/>
<path d="M96.75 29.4746C96.75 27.8146 98.75 26.4746 101.25 26.4746C103.75 26.4746 105.75 27.8146 105.75 29.4746H96.75Z" fill="#FFE35C"/>
<path d="M107.75 41.4746H97.75C97.1977 41.4746 96.75 41.9223 96.75 42.4746V49.4746C96.75 50.0269 97.1977 50.4746 97.75 50.4746H107.75C108.302 50.4746 108.75 50.0269 108.75 49.4746V42.4746C108.75 41.9223 108.302 41.4746 107.75 41.4746Z" fill="#78BFFF"/>
<path d="M63.75 47.4746L71.15 52.9646L81.75 38.4746" stroke="#FFC400" stroke-width="3" stroke-linecap="round" stroke-linejoin="round"/>
<path d="M66.75 35.4746C68.4069 35.4746 69.75 34.1315 69.75 32.4746C69.75 30.8178 68.4069 29.4746 66.75 29.4746C65.0931 29.4746 63.75 30.8178 63.75 32.4746C63.75 34.1315 65.0931 35.4746 66.75 35.4746Z" fill="#78BFFF"/>
<path d="M46.6 5.21513C49.1231 3.46468 52.0674 2.41867 55.1294 2.18489C58.1914 1.95111 61.2603 2.53803 64.02 3.88514C65.1766 4.45269 66.2666 5.14696 67.27 5.95515" stroke="#FFC400" stroke-width="3" stroke-miterlimit="10" stroke-linecap="round"/>
<path d="M39.9399 14.3651C40.2763 13.2555 40.7253 12.1832 41.2799 11.165" stroke="#FFC400" stroke-width="3" stroke-miterlimit="10" stroke-linecap="round"/>
<path d="M49.19 35.0248C46.6004 33.8222 44.3497 31.9959 42.6393 29.7097C40.929 27.4234 39.8125 24.7486 39.39 21.9248" stroke="#FFC400" stroke-width="3" stroke-miterlimit="10" stroke-linecap="round"/>
</g>
<defs>
<clipPath id="clip0_3043_25359">
<rect width="178.5" height="91.73" fill="white" transform="translate(0.75 0.634766)"/>
</clipPath>
</defs>
</svg>
