<svg width="73" height="80" viewBox="0 0 73 80" fill="none" xmlns="http://www.w3.org/2000/svg">
<path d="M25.5303 74.6702L53.7303 35.9102" stroke="#275AD6" stroke-width="2" stroke-linecap="round" stroke-linejoin="round"/>
<path d="M19.3702 78.3098C23.181 78.3098 26.2702 75.2205 26.2702 71.4098C26.2702 67.599 23.181 64.5098 19.3702 64.5098C15.5594 64.5098 12.4702 67.599 12.4702 71.4098C12.4702 75.2205 15.5594 78.3098 19.3702 78.3098Z" stroke="#275AD6" stroke-width="2" stroke-linecap="round" stroke-linejoin="round"/>
<path d="M47.3802 74.6702L19.1802 35.9102" stroke="#275AD6" stroke-width="2" stroke-linecap="round" stroke-linejoin="round"/>
<path d="M53.5401 78.3098C57.3509 78.3098 60.4401 75.2205 60.4401 71.4098C60.4401 67.599 57.3509 64.5098 53.5401 64.5098C49.7294 64.5098 46.6401 67.599 46.6401 71.4098C46.6401 75.2205 49.7294 78.3098 53.5401 78.3098Z" stroke="#275AD6" stroke-width="2" stroke-linecap="round" stroke-linejoin="round"/>
<path d="M44.0102 35.9102H19.1802" stroke="#275AD6" stroke-width="2" stroke-linecap="round" stroke-linejoin="round"/>
<path d="M9.14 35.9099H1V1.68994H71.44V35.9099H53.73" stroke="#275AD6" stroke-width="2" stroke-linecap="round" stroke-linejoin="round"/>
<path d="M41.53 13.45C40.8124 12.7352 39.9534 12.1784 39.0079 11.815C38.0625 11.4516 37.0516 11.2898 36.04 11.34C32.64 11.34 30.54 12.68 30.54 14.93C30.54 17.5 33.1 19.08 36.04 19.08" stroke="#275AD6" stroke-width="2" stroke-linecap="round" stroke-linejoin="round"/>
<path d="M36.04 8.52002V29.65" stroke="#275AD6" stroke-width="2" stroke-linecap="round" stroke-linejoin="round"/>
<path d="M30.54 24.7201C31.2592 25.4356 32.1199 25.9929 33.0671 26.3562C34.0142 26.7196 35.0269 26.881 36.04 26.8301C39.44 26.8301 41.53 25.4901 41.53 23.2301C41.53 20.6701 38.98 19.0801 36.04 19.0801" stroke="#275AD6" stroke-width="2" stroke-linecap="round" stroke-linejoin="round"/>
</svg>
