<svg width="461" height="219" viewBox="0 0 461 219" fill="none" xmlns="http://www.w3.org/2000/svg">
<mask id="mask0_1134_32365" style="mask-type:luminance" maskUnits="userSpaceOnUse" x="26" y="0" width="409" height="217">
<path d="M26.0303 150.346C26.0303 174.077 33.5203 196.528 46.8203 216.498H413.68C426.99 196.528 434.47 174.077 434.47 150.346C434.48 67.3126 343.05 0 230.25 0C117.45 0 26.0303 67.3126 26.0303 150.346Z" fill="white"/>
</mask>
<g mask="url(#mask0_1134_32365)">
<path d="M458.5 0H2V216.498H458.5V0Z" fill="#E0EBF5"/>
</g>
<path d="M341.25 194.106C341.25 184.775 337.87 171.215 337.87 171.215H380.22C380.22 171.215 376.84 184.785 376.84 194.106C376.84 203.426 380.22 216.997 380.22 216.997H337.87" fill="#EDEDE3"/>
<path d="M341.25 194.106C341.25 184.775 337.87 171.215 337.87 171.215H380.22C380.22 171.215 376.84 184.785 376.84 194.106C376.84 203.426 380.22 216.997 380.22 216.997H337.87" stroke="#2659D9" stroke-width="3.01" stroke-linecap="round" stroke-linejoin="round"/>
<path d="M385.67 203.264C388.82 201.734 395.78 197.774 396.4 189.394C396.74 184.784 394.23 180.843 390.97 179.833C387.71 178.823 381.98 179.983 377.5 185.454" stroke="#2659D9" stroke-width="3.01" stroke-linecap="round" stroke-linejoin="round"/>
<path d="M326.59 203.431V77.9553C326.59 74.1851 323.54 71.125 319.77 71.125H140.73C136.97 71.125 133.91 74.1851 133.91 77.9553V203.431H326.58H326.59Z" fill="white"/>
<path d="M120.13 203.434H340.37C340.37 210.924 334.29 217.004 326.82 217.004H133.69C126.21 217.004 120.14 210.924 120.14 203.434H120.13Z" fill="#E0EBF5"/>
<path d="M121.94 210.22C120.79 208.23 120.13 205.9 120.13 203.43H340.37C340.37 205.19 340.04 206.88 339.43 208.42C337.45 213.44 332.55 217 326.83 217" stroke="#2659D9" stroke-width="3.01" stroke-linecap="round" stroke-linejoin="round"/>
<path d="M242.11 203.43H218.39V207.31H242.11V203.43Z" fill="#2659D9" stroke="#2659D9" stroke-width="3.01" stroke-linecap="round" stroke-linejoin="round"/>
<path d="M325.98 194.951V77.9153C325.98 74.1651 322.95 71.125 319.2 71.125H141.3C137.56 71.125 134.52 74.1651 134.52 77.9153V194.951" stroke="#2659D9" stroke-width="3.01" stroke-linecap="round" stroke-linejoin="round"/>
<path d="M223.47 76.9141H237.03" stroke="#2659D9" stroke-linecap="round" stroke-linejoin="round"/>
<path d="M2 217H459" stroke="#2659D9" stroke-width="3.01" stroke-linecap="round" stroke-linejoin="round"/>
<path d="M75.5498 204.901C74.3398 204.08 73.2198 203.16 72.1898 202.12C71.1598 201.08 70.2398 199.97 69.4198 198.75C68.5998 197.53 67.8998 196.24 67.3298 194.89C66.7598 193.54 66.3098 192.1 66.0098 190.62C65.7098 189.14 65.5498 187.6 65.5498 186.04C65.5498 184.48 65.7098 182.94 66.0098 181.459C66.3098 179.979 66.7598 178.549 67.3298 177.189C67.8998 175.829 68.6098 174.529 69.4198 173.329C70.2298 172.129 71.1598 170.989 72.1898 169.959C73.2198 168.929 74.3398 168.009 75.5498 167.179C76.7598 166.349 78.0498 165.659 79.3998 165.089C80.7498 164.519 82.1798 164.069 83.6598 163.769C85.1398 163.469 86.6698 163.309 88.2298 163.309C89.7898 163.309 91.3198 163.469 92.7998 163.769C94.2798 164.069 95.6998 164.519 97.0598 165.089C98.4198 165.659 99.7098 166.369 100.91 167.179C102.11 167.989 103.24 168.919 104.27 169.959C105.3 170.999 106.22 172.109 107.04 173.329C107.86 174.549 108.56 175.839 109.13 177.189C109.7 178.539 110.15 179.979 110.45 181.459C110.75 182.94 110.91 184.48 110.91 186.04C110.91 187.6 110.75 189.14 110.45 190.62C110.15 192.1 109.7 193.53 109.13 194.89C108.56 196.25 107.85 197.55 107.04 198.75C106.23 199.95 105.3 201.09 104.27 202.12C103.24 203.15 102.12 204.07 100.91 204.901C99.6998 205.731 98.4098 206.421 97.0598 206.991C95.7098 207.561 94.2798 208.011 92.7998 208.311C91.3198 208.611 89.7898 208.771 88.2298 208.771C86.6698 208.771 85.1398 208.611 83.6598 208.311" fill="white"/>
<path d="M75.5498 204.901C74.3398 204.08 73.2198 203.16 72.1898 202.12C71.1598 201.08 70.2398 199.97 69.4198 198.75C68.5998 197.53 67.8998 196.24 67.3298 194.89C66.7598 193.54 66.3098 192.1 66.0098 190.62C65.7098 189.14 65.5498 187.6 65.5498 186.04C65.5498 184.48 65.7098 182.94 66.0098 181.459C66.3098 179.979 66.7598 178.549 67.3298 177.189C67.8998 175.829 68.6098 174.529 69.4198 173.329C70.2298 172.129 71.1598 170.989 72.1898 169.959C73.2198 168.929 74.3398 168.009 75.5498 167.179C76.7598 166.349 78.0498 165.659 79.3998 165.089C80.7498 164.519 82.1798 164.069 83.6598 163.769C85.1398 163.469 86.6698 163.309 88.2298 163.309C89.7898 163.309 91.3198 163.469 92.7998 163.769C94.2798 164.069 95.6998 164.519 97.0598 165.089C98.4198 165.659 99.7098 166.369 100.91 167.179C102.11 167.989 103.24 168.919 104.27 169.959C105.3 170.999 106.22 172.109 107.04 173.329C107.86 174.549 108.56 175.839 109.13 177.189C109.7 178.539 110.15 179.979 110.45 181.459C110.75 182.94 110.91 184.48 110.91 186.04C110.91 187.6 110.75 189.14 110.45 190.62C110.15 192.1 109.7 193.53 109.13 194.89C108.56 196.25 107.85 197.55 107.04 198.75C106.23 199.95 105.3 201.09 104.27 202.12C103.24 203.15 102.12 204.07 100.91 204.901C99.6998 205.731 98.4098 206.421 97.0598 206.991C95.7098 207.561 94.2798 208.011 92.7998 208.311C91.3198 208.611 89.7898 208.771 88.2298 208.771C86.6698 208.771 85.1398 208.611 83.6598 208.311" stroke="#2659D9" stroke-width="3.01" stroke-miterlimit="10" stroke-linecap="round"/>
<path d="M75.5497 204.902L73.3297 208.722L71.1096 212.532L68.8896 216.352" stroke="#2659D9" stroke-width="3.01" stroke-miterlimit="10" stroke-linecap="round"/>
<path d="M100.939 204.902L103.129 208.722L105.329 212.532L107.509 216.352" stroke="#2659D9" stroke-width="3.01" stroke-miterlimit="10" stroke-linecap="round"/>
<path d="M94 156.319L94.73 155.099C96.34 152.409 99.84 151.539 102.52 153.159L109.82 157.549C112.5 159.159 113.37 162.659 111.76 165.349L111.03 166.569" fill="#FFC400"/>
<path d="M94 156.319L94.73 155.099C96.34 152.409 99.84 151.539 102.52 153.159L109.82 157.549C112.5 159.159 113.37 162.659 111.76 165.349L111.03 166.569" stroke="#2659D9" stroke-width="3.01" stroke-linecap="round" stroke-linejoin="round"/>
<path d="M106.18 155.348L107.64 152.918" stroke="#2659D9" stroke-width="3.01" stroke-linecap="round" stroke-linejoin="round"/>
<path d="M65.4496 166.418L64.7396 165.188C63.1696 162.468 64.0996 158.998 66.8196 157.418L74.1996 153.158C76.9096 151.588 80.3896 152.518 81.9596 155.238L82.6696 156.468" fill="#FFC400"/>
<path d="M65.4496 166.418L64.7396 165.188C63.1696 162.468 64.0996 158.998 66.8196 157.418L74.1996 153.158C76.9096 151.588 80.3896 152.518 81.9596 155.238L82.6696 156.468" stroke="#2659D9" stroke-width="3.01" stroke-linecap="round" stroke-linejoin="round"/>
<path d="M70.5098 155.286L69.0898 152.836" stroke="#2659D9" stroke-width="3.01" stroke-linecap="round" stroke-linejoin="round"/>
<path d="M88.25 186.06V170.02" stroke="#2659D9" stroke-linecap="round" stroke-linejoin="round"/>
<path d="M88.25 186.062L95.09 190.012" stroke="#2659D9" stroke-linecap="round" stroke-linejoin="round"/>
<path d="M255.39 130.404C251.54 122.523 242.07 117.703 229.39 117.703C221.9 117.703 214.88 120.833 208.31 125.533L202.35 122.373L202.32 131.124C201.41 132.704 201.13 134.564 201.19 136.564L196.51 138.494L198.85 149.455L208.62 152.455C211.32 154.755 213.06 157.865 214.4 161.335H222.69L223.99 155.165C227.27 155.625 230.91 155.585 234.77 155.165L235.54 161.335H243.59C243.59 149.835 249.95 149.055 253.62 140.524C258.53 129.104 267.9 140.814 262.09 143.044C256.28 145.274 253.97 130.924 262.02 129.764C277.56 127.524 276.48 175.376 234.99 175.376C214.85 175.376 208.47 164.425 191.74 168.065" stroke="#1A56E2" stroke-width="3.01" stroke-linecap="round" stroke-linejoin="round"/>
<path d="M229.91 132.416C237.222 132.416 243.15 126.479 243.15 119.155C243.15 111.832 237.222 105.895 229.91 105.895C222.598 105.895 216.67 111.832 216.67 119.155C216.67 126.479 222.598 132.416 229.91 132.416Z" fill="#FFC300"/>
<path d="M234.31 131.676C232.94 132.156 231.46 132.416 229.92 132.416C222.6 132.416 216.68 126.475 216.68 119.155C216.68 111.835 222.62 105.895 229.92 105.895C237.22 105.895 243.16 111.835 243.16 119.155C243.16 119.455 243.16 119.745 243.13 120.035" stroke="#1A56E2" stroke-width="3.01" stroke-linecap="round" stroke-linejoin="round"/>
<path d="M230.22 119.116C227.67 119.116 225.6 118.006 225.6 116.636C225.6 115.266 227.67 114.156 230.22 114.156" stroke="#1A56E2" stroke-width="3.01" stroke-linecap="round" stroke-linejoin="round"/>
<path d="M230.22 114.168C231.93 114.168 233.42 114.668 234.22 115.398" stroke="#1A56E2" stroke-width="3.01" stroke-linecap="round" stroke-linejoin="round"/>
<path d="M229.6 119.117C232.15 119.117 234.22 120.227 234.22 121.597C234.22 122.967 232.15 124.077 229.6 124.077" stroke="#1A56E2" stroke-width="3.01" stroke-linecap="round" stroke-linejoin="round"/>
<path d="M229.6 124.078C227.89 124.078 226.4 123.578 225.6 122.848" stroke="#0451EB" stroke-width="2.6" stroke-linecap="round" stroke-linejoin="round"/>
<path d="M230.08 111.574V126.664" stroke="#1A56E2" stroke-width="3.01" stroke-linecap="round" stroke-linejoin="round"/>
</svg>
