<svg width="461" height="219" viewBox="0 0 461 219" fill="none" xmlns="http://www.w3.org/2000/svg">
<mask id="mask0_1134_32411" style="mask-type:luminance" maskUnits="userSpaceOnUse" x="26" y="0" width="409" height="217">
<path d="M26.0303 150.347C26.0303 174.078 33.5203 196.529 46.8203 216.5H413.68C426.99 196.529 434.47 174.078 434.47 150.347C434.48 67.3131 343.05 0 230.25 0C117.45 0 26.0303 67.3131 26.0303 150.347Z" fill="white"/>
</mask>
<g mask="url(#mask0_1134_32411)">
<path d="M458.5 0H2V216.5H458.5V0Z" fill="#E0EBF5"/>
</g>
<path d="M341.25 194.106C341.25 184.775 337.87 171.215 337.87 171.215H380.22C380.22 171.215 376.84 184.785 376.84 194.106C376.84 203.426 380.22 216.997 380.22 216.997H337.87" fill="#EDEDE3"/>
<path d="M341.25 194.106C341.25 184.775 337.87 171.215 337.87 171.215H380.22C380.22 171.215 376.84 184.785 376.84 194.106C376.84 203.426 380.22 216.997 380.22 216.997H337.87" stroke="#2659D9" stroke-width="3.01" stroke-linecap="round" stroke-linejoin="round"/>
<path d="M385.67 203.264C388.82 201.734 395.78 197.774 396.4 189.394C396.74 184.784 394.23 180.843 390.97 179.833C387.71 178.823 381.98 179.983 377.5 185.454" stroke="#2659D9" stroke-width="3.01" stroke-linecap="round" stroke-linejoin="round"/>
<path d="M357.61 162.095C357.92 161.785 358.16 161.425 358.33 161.015C358.5 160.605 358.6 160.165 358.6 159.695C358.6 159.225 358.51 158.785 358.33 158.375C358.15 157.965 357.91 157.605 357.61 157.295C357.31 156.985 357.06 156.625 356.89 156.215C356.72 155.805 356.62 155.365 356.62 154.895C356.62 154.425 356.71 153.985 356.89 153.575C357.07 153.165 357.31 152.805 357.61 152.495C357.91 152.185 358.16 151.825 358.33 151.415C358.5 151.005 358.6 150.565 358.6 150.095C358.6 149.625 358.51 149.185 358.33 148.775C358.15 148.365 357.91 148.005 357.61 147.695C357.31 147.385 357.06 147.025 356.89 146.615C356.72 146.205 356.62 145.765 356.62 145.295C356.62 144.825 356.71 144.385 356.89 143.975C357.07 143.565 357.31 143.205 357.61 142.895" stroke="white" stroke-miterlimit="10" stroke-linecap="round"/>
<path d="M348.881 162.095C349.191 161.785 349.431 161.425 349.601 161.015C349.771 160.605 349.871 160.165 349.871 159.695C349.871 159.225 349.781 158.785 349.601 158.375C349.421 157.965 349.181 157.605 348.881 157.295C348.581 156.985 348.331 156.625 348.161 156.215C347.991 155.805 347.891 155.365 347.891 154.895C347.891 154.425 347.981 153.985 348.161 153.575C348.341 153.165 348.581 152.805 348.881 152.495C349.181 152.185 349.431 151.825 349.601 151.415C349.771 151.005 349.871 150.565 349.871 150.095C349.871 149.625 349.781 149.185 349.601 148.775C349.421 148.365 349.181 148.005 348.881 147.695C348.581 147.385 348.331 147.025 348.161 146.615C347.991 146.205 347.891 145.765 347.891 145.295C347.891 144.825 347.981 144.385 348.161 143.975C348.341 143.565 348.581 143.205 348.881 142.895" stroke="white" stroke-miterlimit="10" stroke-linecap="round"/>
<path d="M366.35 162.095C366.66 161.785 366.9 161.425 367.07 161.015C367.24 160.605 367.34 160.165 367.34 159.695C367.34 159.225 367.25 158.785 367.07 158.375C366.89 157.965 366.65 157.605 366.35 157.295C366.05 156.985 365.8 156.625 365.63 156.215C365.46 155.805 365.36 155.365 365.36 154.895C365.36 154.425 365.45 153.985 365.63 153.575C365.81 153.165 366.05 152.805 366.35 152.495C366.65 152.185 366.9 151.825 367.07 151.415C367.24 151.005 367.34 150.565 367.34 150.095C367.34 149.625 367.25 149.185 367.07 148.775C366.89 148.365 366.65 148.005 366.35 147.695C366.05 147.385 365.8 147.025 365.63 146.615C365.46 146.205 365.36 145.765 365.36 145.295C365.36 144.825 365.45 144.385 365.63 143.975C365.81 143.565 366.05 143.205 366.35 142.895" stroke="white" stroke-miterlimit="10" stroke-linecap="round"/>
<path d="M326.59 203.431V77.9553C326.59 74.1851 323.54 71.125 319.77 71.125H140.73C136.97 71.125 133.91 74.1851 133.91 77.9553V203.431H326.58H326.59Z" fill="white"/>
<path d="M120.13 203.434H340.37C340.37 210.924 334.29 217.004 326.82 217.004H133.69C126.21 217.004 120.14 210.924 120.14 203.434H120.13Z" fill="#E0EBF5"/>
<path d="M121.94 210.224C120.79 208.234 120.13 205.904 120.13 203.434H340.37C340.37 205.194 340.04 206.884 339.43 208.424C337.45 213.444 332.55 217.004 326.83 217.004" stroke="#2659D9" stroke-width="3.01" stroke-linecap="round" stroke-linejoin="round"/>
<path d="M242.11 203.434H218.39V207.314H242.11V203.434Z" fill="#2659D9" stroke="#2659D9" stroke-width="3.01" stroke-linecap="round" stroke-linejoin="round"/>
<path d="M325.98 194.951V77.9153C325.98 74.1651 322.95 71.125 319.2 71.125H141.3C137.56 71.125 134.52 74.1651 134.52 77.9153V194.951" stroke="#2659D9" stroke-width="3.01" stroke-linecap="round" stroke-linejoin="round"/>
<path d="M223.47 76.9141H237.03" stroke="#2659D9" stroke-linecap="round" stroke-linejoin="round"/>
<path d="M172.799 186.468C179.35 186.468 184.659 181.149 184.659 174.588C184.659 168.026 179.35 162.707 172.799 162.707C166.249 162.707 160.939 168.026 160.939 174.588C160.939 181.149 166.249 186.468 172.799 186.468Z" fill="#78BFFF"/>
<path d="M197.149 99.1094H246.169" stroke="#B8B8B5" stroke-linecap="round" stroke-linejoin="round"/>
<path d="M197.149 105.898H302.189" stroke="#B8B8B5" stroke-linecap="round" stroke-linejoin="round"/>
<path d="M197.149 112.68H276.509" stroke="#B8B8B5" stroke-linecap="round" stroke-linejoin="round"/>
<path d="M197.149 134.305H246.169" stroke="#B8B8B5" stroke-linecap="round" stroke-linejoin="round"/>
<path d="M197.149 141.094H302.189" stroke="#B8B8B5" stroke-linecap="round" stroke-linejoin="round"/>
<path d="M197.149 147.875H276.509" stroke="#B8B8B5" stroke-linecap="round" stroke-linejoin="round"/>
<path d="M197.149 168.238H237.169" stroke="#B8B8B5" stroke-linecap="round" stroke-linejoin="round"/>
<path d="M197.149 175.027H282.919" stroke="#B8B8B5" stroke-linecap="round" stroke-linejoin="round"/>
<path d="M197.149 181.797H261.959" stroke="#B8B8B5" stroke-linecap="round" stroke-linejoin="round"/>
<path d="M185.8 105.426C185.8 112.926 179.73 118.997 172.25 118.997C164.77 118.997 158.7 112.926 158.7 105.426C158.7 97.9257 164.77 91.8555 172.25 91.8555" fill="white"/>
<path d="M185.8 105.426C185.8 112.926 179.73 118.997 172.25 118.997C164.77 118.997 158.7 112.926 158.7 105.426C158.7 97.9257 164.77 91.8555 172.25 91.8555" stroke="#2659D9" stroke-linecap="round" stroke-linejoin="round"/>
<path d="M165.33 104.545L172.21 110.945L185.95 93.125" stroke="#FFC300" stroke-width="3.01" stroke-linecap="round" stroke-linejoin="round"/>
<path d="M172.799 152.98C179.35 152.98 184.659 147.661 184.659 141.099C184.659 134.538 179.35 129.219 172.799 129.219C166.249 129.219 160.939 134.538 160.939 141.099C160.939 147.661 166.249 152.98 172.799 152.98Z" fill="#78BFFF"/>
<path d="M2 217H459" stroke="#2659D9" stroke-width="3.01" stroke-linecap="round" stroke-linejoin="round"/>
<path d="M75.5498 204.904C74.3398 204.084 73.2198 203.164 72.1898 202.124C71.1598 201.084 70.2398 199.974 69.4198 198.754C68.5998 197.534 67.8998 196.244 67.3298 194.894C66.7598 193.544 66.3098 192.104 66.0098 190.624C65.7098 189.144 65.5498 187.604 65.5498 186.044C65.5498 184.483 65.7098 182.943 66.0098 181.463C66.3098 179.983 66.7598 178.553 67.3298 177.193C67.8998 175.833 68.6098 174.533 69.4198 173.333C70.2298 172.133 71.1598 170.993 72.1898 169.963C73.2198 168.933 74.3398 168.013 75.5498 167.183C76.7598 166.353 78.0498 165.663 79.3998 165.093C80.7498 164.523 82.1798 164.073 83.6598 163.773C85.1398 163.473 86.6698 163.312 88.2398 163.312C89.8098 163.312 91.3298 163.473 92.8198 163.773C94.3098 164.073 95.7198 164.523 97.0798 165.093C98.4398 165.663 99.7298 166.373 100.93 167.183C102.13 167.993 103.26 168.923 104.29 169.963C105.32 171.003 106.24 172.113 107.06 173.333C107.88 174.553 108.58 175.843 109.15 177.193C109.72 178.543 110.17 179.983 110.47 181.463C110.77 182.943 110.93 184.483 110.93 186.044C110.93 187.604 110.77 189.144 110.47 190.624C110.17 192.104 109.72 193.534 109.15 194.894C108.58 196.254 107.87 197.554 107.06 198.754C106.25 199.954 105.32 201.094 104.29 202.124C103.26 203.154 102.14 204.074 100.93 204.904C99.7198 205.734 98.4298 206.424 97.0798 206.995C95.7298 207.565 94.2998 208.015 92.8198 208.315C91.3398 208.615 89.8098 208.775 88.2398 208.775C86.6698 208.775 85.1498 208.615 83.6598 208.315" fill="white"/>
<path d="M75.5498 204.904C74.3398 204.084 73.2198 203.164 72.1898 202.124C71.1598 201.084 70.2398 199.974 69.4198 198.754C68.5998 197.534 67.8998 196.244 67.3298 194.894C66.7598 193.544 66.3098 192.104 66.0098 190.624C65.7098 189.144 65.5498 187.604 65.5498 186.044C65.5498 184.483 65.7098 182.943 66.0098 181.463C66.3098 179.983 66.7598 178.553 67.3298 177.193C67.8998 175.833 68.6098 174.533 69.4198 173.333C70.2298 172.133 71.1598 170.993 72.1898 169.963C73.2198 168.933 74.3398 168.013 75.5498 167.183C76.7598 166.353 78.0498 165.663 79.3998 165.093C80.7498 164.523 82.1798 164.073 83.6598 163.773C85.1398 163.473 86.6698 163.312 88.2398 163.312C89.8098 163.312 91.3298 163.473 92.8198 163.773C94.3098 164.073 95.7198 164.523 97.0798 165.093C98.4398 165.663 99.7298 166.373 100.93 167.183C102.13 167.993 103.26 168.923 104.29 169.963C105.32 171.003 106.24 172.113 107.06 173.333C107.88 174.553 108.58 175.843 109.15 177.193C109.72 178.543 110.17 179.983 110.47 181.463C110.77 182.943 110.93 184.483 110.93 186.044C110.93 187.604 110.77 189.144 110.47 190.624C110.17 192.104 109.72 193.534 109.15 194.894C108.58 196.254 107.87 197.554 107.06 198.754C106.25 199.954 105.32 201.094 104.29 202.124C103.26 203.154 102.14 204.074 100.93 204.904C99.7198 205.734 98.4298 206.424 97.0798 206.995C95.7298 207.565 94.2998 208.015 92.8198 208.315C91.3398 208.615 89.8098 208.775 88.2398 208.775C86.6698 208.775 85.1498 208.615 83.6598 208.315" stroke="#2659D9" stroke-width="3.01" stroke-miterlimit="10" stroke-linecap="round"/>
<path d="M75.5497 204.906L73.3297 208.726L71.1096 212.536L68.8896 216.356" stroke="#2659D9" stroke-width="3.01" stroke-miterlimit="10" stroke-linecap="round"/>
<path d="M100.939 204.906L103.129 208.726L105.329 212.536L107.509 216.356" stroke="#2659D9" stroke-width="3.01" stroke-miterlimit="10" stroke-linecap="round"/>
<path d="M94 156.323L94.73 155.103C96.34 152.413 99.84 151.543 102.52 153.163L109.82 157.553C112.5 159.163 113.37 162.663 111.76 165.353L111.03 166.573" fill="#FFC400"/>
<path d="M94 156.323L94.73 155.103C96.34 152.413 99.84 151.543 102.52 153.163L109.82 157.553C112.5 159.163 113.37 162.663 111.76 165.353L111.03 166.573" stroke="#2659D9" stroke-width="3.01" stroke-linecap="round" stroke-linejoin="round"/>
<path d="M106.18 155.352L107.64 152.922" stroke="#2659D9" stroke-width="3.01" stroke-linecap="round" stroke-linejoin="round"/>
<path d="M65.4496 166.421L64.7396 165.192C63.1696 162.472 64.0996 159.001 66.8196 157.421L74.1996 153.162C76.9096 151.592 80.3896 152.522 81.9596 155.242L82.6696 156.472" fill="#FFC400"/>
<path d="M65.4496 166.421L64.7396 165.192C63.1696 162.472 64.0996 159.001 66.8196 157.421L74.1996 153.162C76.9096 151.592 80.3896 152.522 81.9596 155.242L82.6696 156.472" stroke="#2659D9" stroke-width="3.01" stroke-linecap="round" stroke-linejoin="round"/>
<path d="M70.5098 155.29L69.0898 152.84" stroke="#2659D9" stroke-width="3.01" stroke-linecap="round" stroke-linejoin="round"/>
<path d="M88.25 186.066H96.4" stroke="#2659D9" stroke-linecap="round" stroke-linejoin="round"/>
<path d="M88.25 171.023V186.063" stroke="#2659D9" stroke-linecap="round" stroke-linejoin="round"/>
<path d="M174.19 141.988L174.3 164.379L181.1 158.289L190.58 157.469L174.19 141.988Z" fill="#2659D9" stroke="white" stroke-width="2" stroke-linecap="round" stroke-linejoin="round"/>
</svg>
