<svg width="461" height="219" viewBox="0 0 461 219" fill="none" xmlns="http://www.w3.org/2000/svg">
<mask id="mask0_1134_32316" style="mask-type:luminance" maskUnits="userSpaceOnUse" x="26" y="0" width="409" height="217">
<path d="M26.0303 150.32C26.0303 174.05 33.5203 196.5 46.8203 216.46H413.68C426.99 196.5 434.47 174.05 434.47 150.32C434.48 67.3 343.05 0 230.25 0C117.45 0 26.0303 67.3 26.0303 150.32Z" fill="white"/>
</mask>
<g mask="url(#mask0_1134_32316)">
<path d="M458.5 0H2V216.46H458.5V0Z" fill="#E0EBF5"/>
</g>
<path d="M341.23 194.109C341.23 184.779 337.84 171.219 337.84 171.219H380.23C380.23 171.219 376.84 184.789 376.84 194.109C376.84 203.429 380.23 216.999 380.23 216.999H337.84" fill="#EDEDE3"/>
<path d="M341.23 194.109C341.23 184.779 337.84 171.219 337.84 171.219H380.23C380.23 171.219 376.84 184.789 376.84 194.109C376.84 203.429 380.23 216.999 380.23 216.999H337.84" stroke="#2659D9" stroke-width="3.01" stroke-linecap="round" stroke-linejoin="round"/>
<path d="M385.69 203.267C388.85 201.737 395.81 197.777 396.43 189.397C396.77 184.787 394.26 180.847 391 179.837C387.74 178.827 382 179.987 377.51 185.457" stroke="#2659D9" stroke-width="3.01" stroke-linecap="round" stroke-linejoin="round"/>
<path d="M357.599 162.1C357.909 161.79 358.149 161.43 358.319 161.02C358.489 160.61 358.589 160.17 358.589 159.7C358.589 159.23 358.499 158.79 358.319 158.38C358.139 157.97 357.899 157.61 357.599 157.3C357.299 156.99 357.049 156.63 356.879 156.22C356.709 155.81 356.609 155.37 356.609 154.9C356.609 154.43 356.699 153.99 356.879 153.58C357.059 153.17 357.299 152.81 357.599 152.5" stroke="white" stroke-miterlimit="10" stroke-linecap="round"/>
<path d="M348.86 162.1C349.17 161.79 349.41 161.43 349.58 161.02C349.75 160.61 349.85 160.17 349.85 159.7C349.85 159.23 349.76 158.79 349.58 158.38C349.4 157.97 349.16 157.61 348.86 157.3C348.56 156.99 348.31 156.63 348.14 156.22C347.97 155.81 347.87 155.37 347.87 154.9C347.87 154.43 347.96 153.99 348.14 153.58C348.32 153.17 348.56 152.81 348.86 152.5" stroke="white" stroke-miterlimit="10" stroke-linecap="round"/>
<path d="M366.349 162.1C366.659 161.79 366.899 161.43 367.069 161.02C367.239 160.61 367.339 160.17 367.339 159.7C367.339 159.23 367.249 158.79 367.069 158.38C366.889 157.97 366.649 157.61 366.349 157.3C366.049 156.99 365.799 156.63 365.629 156.22C365.459 155.81 365.359 155.37 365.359 154.9C365.359 154.43 365.449 153.99 365.629 153.58C365.809 153.17 366.049 152.81 366.349 152.5" stroke="white" stroke-miterlimit="10" stroke-linecap="round"/>
<path d="M326.59 203.389V77.9294C326.59 74.1594 323.54 71.1094 319.77 71.1094H140.73C136.97 71.1094 133.91 74.1694 133.91 77.9294V203.379H326.58L326.59 203.389Z" fill="white"/>
<path d="M120.13 203.391H340.37C340.37 210.881 334.29 216.961 326.82 216.961H133.69C126.21 216.961 120.14 210.881 120.14 203.391H120.13Z" fill="#E0EBF5"/>
<path d="M121.94 210.182C120.79 208.192 120.13 205.862 120.13 203.402H340.37C340.37 205.162 340.04 206.852 339.43 208.392C337.45 213.412 332.55 216.972 326.83 216.972" stroke="#2659D9" stroke-width="3" stroke-linecap="round" stroke-linejoin="round"/>
<path d="M242.11 203.391H218.39V207.271H242.11V203.391Z" fill="#2659D9" stroke="#2659D9" stroke-width="3" stroke-linecap="round" stroke-linejoin="round"/>
<path d="M325.98 194.909V77.8894C325.98 74.1394 322.95 71.1094 319.2 71.1094H141.3C137.56 71.1094 134.52 74.1494 134.52 77.8894V194.909" stroke="#2659D9" stroke-width="3" stroke-linecap="round" stroke-linejoin="round"/>
<path d="M223.47 76.8984H237.03" stroke="#2659D9" stroke-linecap="round" stroke-linejoin="round"/>
<path d="M2 216.961H459" stroke="#2659D9" stroke-width="3" stroke-linecap="round" stroke-linejoin="round"/>
<path d="M75.5405 204.871C74.3305 204.051 73.2005 203.131 72.1705 202.091C71.1405 201.051 70.2205 199.941 69.3905 198.721C68.5605 197.501 67.8705 196.211 67.3005 194.861C66.7305 193.511 66.2805 192.071 65.9805 190.591C65.6805 189.111 65.5205 187.571 65.5205 186.011C65.5205 184.451 65.6805 182.911 65.9805 181.431C66.2805 179.951 66.7305 178.521 67.3005 177.161C67.8705 175.801 68.5805 174.501 69.3905 173.301C70.2005 172.101 71.1305 170.971 72.1705 169.931C73.2105 168.891 74.3205 167.981 75.5405 167.151C76.7605 166.321 78.0505 165.631 79.4005 165.061C80.7505 164.491 82.1905 164.041 83.6705 163.741C85.1505 163.441 86.6905 163.281 88.2505 163.281C89.8105 163.281 91.3505 163.441 92.8305 163.741C94.3105 164.041 95.7405 164.491 97.1005 165.061C98.4605 165.631 99.7605 166.341 100.961 167.151C102.161 167.961 103.301 168.891 104.331 169.931C105.361 170.971 106.281 172.081 107.111 173.301C107.941 174.521 108.631 175.811 109.201 177.161C109.771 178.511 110.221 179.951 110.521 181.431C110.821 182.911 110.981 184.451 110.981 186.011C110.981 187.571 110.821 189.111 110.521 190.591C110.221 192.071 109.771 193.501 109.201 194.861C108.631 196.221 107.921 197.521 107.111 198.721C106.301 199.921 105.371 201.051 104.331 202.091C103.291 203.131 102.181 204.041 100.961 204.871C99.7405 205.701 98.4505 206.391 97.1005 206.961C95.7505 207.531 94.3105 207.981 92.8305 208.281C91.3505 208.581 89.8105 208.741 88.2505 208.741C86.6905 208.741 85.1505 208.581 83.6705 208.281" fill="white"/>
<path d="M75.5405 204.871C74.3305 204.051 73.2005 203.131 72.1705 202.091C71.1405 201.051 70.2205 199.941 69.3905 198.721C68.5605 197.501 67.8705 196.211 67.3005 194.861C66.7305 193.511 66.2805 192.071 65.9805 190.591C65.6805 189.111 65.5205 187.571 65.5205 186.011C65.5205 184.451 65.6805 182.911 65.9805 181.431C66.2805 179.951 66.7305 178.521 67.3005 177.161C67.8705 175.801 68.5805 174.501 69.3905 173.301C70.2005 172.101 71.1305 170.971 72.1705 169.931C73.2105 168.891 74.3205 167.981 75.5405 167.151C76.7605 166.321 78.0505 165.631 79.4005 165.061C80.7505 164.491 82.1905 164.041 83.6705 163.741C85.1505 163.441 86.6905 163.281 88.2505 163.281C89.8105 163.281 91.3505 163.441 92.8305 163.741C94.3105 164.041 95.7405 164.491 97.1005 165.061C98.4605 165.631 99.7605 166.341 100.961 167.151C102.161 167.961 103.301 168.891 104.331 169.931C105.361 170.971 106.281 172.081 107.111 173.301C107.941 174.521 108.631 175.811 109.201 177.161C109.771 178.511 110.221 179.951 110.521 181.431C110.821 182.911 110.981 184.451 110.981 186.011C110.981 187.571 110.821 189.111 110.521 190.591C110.221 192.071 109.771 193.501 109.201 194.861C108.631 196.221 107.921 197.521 107.111 198.721C106.301 199.921 105.371 201.051 104.331 202.091C103.291 203.131 102.181 204.041 100.961 204.871C99.7405 205.701 98.4505 206.391 97.1005 206.961C95.7505 207.531 94.3105 207.981 92.8305 208.281C91.3505 208.581 89.8105 208.741 88.2505 208.741C86.6905 208.741 85.1505 208.581 83.6705 208.281" stroke="#2659D9" stroke-width="3.01" stroke-miterlimit="10" stroke-linecap="round"/>
<path d="M75.5401 204.871L73.3101 208.691L71.0901 212.501L68.8701 216.321" stroke="#2659D9" stroke-width="3.01" stroke-miterlimit="10" stroke-linecap="round"/>
<path d="M100.95 204.871L103.15 208.691L105.34 212.501L107.53 216.321" stroke="#2659D9" stroke-width="3.01" stroke-miterlimit="10" stroke-linecap="round"/>
<path d="M94.0098 156.299L94.7398 155.079C96.3498 152.389 99.8498 151.519 102.54 153.139L109.85 157.529C112.54 159.139 113.41 162.639 111.79 165.329L111.06 166.549" fill="#FFC400"/>
<path d="M94.0098 156.299L94.7398 155.079C96.3498 152.389 99.8498 151.519 102.54 153.139L109.85 157.529C112.54 159.139 113.41 162.639 111.79 165.329L111.06 166.549" stroke="#2659D9" stroke-width="3.01" stroke-linecap="round" stroke-linejoin="round"/>
<path d="M106.2 155.331L107.66 152.891" stroke="#2659D9" stroke-width="3.01" stroke-linecap="round" stroke-linejoin="round"/>
<path d="M65.4301 166.39L64.7201 165.16C63.1501 162.44 64.0801 158.97 66.8001 157.39L74.1901 153.13C76.9101 151.56 80.3801 152.49 81.9601 155.21L82.6701 156.44" fill="#FFC400"/>
<path d="M65.4301 166.39L64.7201 165.16C63.1501 162.44 64.0801 158.97 66.8001 157.39L74.1901 153.13C76.9101 151.56 80.3801 152.49 81.9601 155.21L82.6701 156.44" stroke="#2659D9" stroke-width="3.01" stroke-linecap="round" stroke-linejoin="round"/>
<path d="M70.4903 155.269L69.0703 152.809" stroke="#2659D9" stroke-width="3.01" stroke-linecap="round" stroke-linejoin="round"/>
<path d="M88.25 186.03L102.13 178.02" stroke="#2659D9" stroke-linecap="round" stroke-linejoin="round"/>
<path d="M88.25 186.031L96.12 186.711" stroke="#2659D9" stroke-linecap="round" stroke-linejoin="round"/>
<path d="M221.86 150.273L226.94 154.333L235.2 143.043" stroke="#FFC300" stroke-width="3.01" stroke-linecap="round" stroke-linejoin="round"/>
<path d="M215.6 155.571C206.85 162.051 194.44 161.531 186.26 153.791C177.07 145.101 176.66 130.601 185.35 121.411C194.04 112.221 208.54 111.811 217.73 120.501C224.33 126.741 226.41 135.991 223.82 144.111" stroke="#1A56E2" stroke-width="3.01" stroke-linecap="round" stroke-linejoin="round"/>
<path d="M200.51 127.41L195.12 143.59H205.9" stroke="#1A56E2" stroke-width="3.01" stroke-linecap="round" stroke-linejoin="round"/>
<path d="M216.68 133.1C216.68 133.1 212.64 126.37 205.9 133.1" stroke="#1A56E2" stroke-width="3.01" stroke-linecap="round" stroke-linejoin="round"/>
<path d="M192.43 133.1C192.43 133.1 188.39 126.37 181.65 133.1" stroke="#1A56E2" stroke-width="3.01" stroke-linecap="round" stroke-linejoin="round"/>
<path d="M246.3 128.73H263.57" stroke="#B8B8B5" stroke-linecap="round" stroke-linejoin="round"/>
<path d="M246.3 135.52H283.3" stroke="#B8B8B5" stroke-linecap="round" stroke-linejoin="round"/>
<path d="M246.3 142.301H274.25" stroke="#B8B8B5" stroke-linecap="round" stroke-linejoin="round"/>
</svg>
