<svg width="100" height="39" viewBox="0 0 100 39" fill="none" xmlns="http://www.w3.org/2000/svg">
<g clip-path="url(#clip0_282_10391)">
<path d="M7.84921 3.40149C5.71428 3.40149 4.22222 5.33943 4.22222 9.08664C4.22222 13.1073 5.56349 14.804 7.92857 14.804C10.1111 14.804 11.5317 13.0188 11.5317 9.11881C11.5317 5.09819 10.2143 3.42561 7.84921 3.42561V3.40149ZM7.80159 18.2054C2.80952 18.2054 0 14.6029 0 9.19118C0 3.77943 3.00794 0.0241699 7.93651 0.0241699C13.127 0.0241699 15.7381 3.93221 15.7381 9.04644C15.7381 14.6753 12.4524 18.2054 7.80159 18.2054Z" fill="white"/>
<path d="M28.6189 17.8516H26.3491C25.8252 17.8516 25.6268 17.5782 25.6268 17.0957V10.4054C25.6268 9.34395 25.357 8.63632 24.2141 8.63632C23.2861 8.66952 22.3954 9.01466 21.6824 9.61735V17.1279C21.6824 17.6103 21.484 17.8596 20.984 17.8596H18.6348C18.5429 17.872 18.4495 17.8633 18.3614 17.8343C18.2733 17.8052 18.1927 17.7564 18.1257 17.6916C18.0587 17.6268 18.0068 17.5475 17.9741 17.4597C17.9413 17.3719 17.9284 17.2777 17.9364 17.1842V6.32045C17.9364 5.84601 18.111 5.58869 18.6586 5.58869H20.6983C21.0713 5.58869 21.3411 5.69323 21.3887 6.11942L21.4443 6.65014C22.5709 5.73808 23.9705 5.24178 25.4125 5.24292C28.1427 5.24292 29.3332 6.97983 29.3332 9.72189V17.1279C29.3332 17.6345 29.1586 17.8837 28.611 17.8837" fill="white"/>
<path d="M37.7936 8.13778C37.2205 8.15991 36.6754 8.39516 36.2626 8.79861C35.8497 9.20206 35.598 9.74545 35.5555 10.325H39.7063C39.7314 10.0523 39.701 9.77723 39.6169 9.51689C39.5329 9.25655 39.3971 9.01645 39.2178 8.81144C39.0385 8.60643 38.8196 8.44086 38.5746 8.32499C38.3297 8.20912 38.0639 8.1454 37.7936 8.13778ZM42.4603 12.7132H35.5079C35.6601 13.4404 36.0635 14.0887 36.6455 14.5413C37.2275 14.9939 37.9499 15.2211 38.6825 15.1819C39.7723 15.1744 40.8503 14.9532 41.8571 14.5306C41.9482 14.484 42.0487 14.4592 42.1508 14.4582C42.2487 14.4557 42.3441 14.4907 42.4176 14.5563C42.4912 14.6219 42.5376 14.7132 42.5476 14.812C42.7483 15.4521 42.9074 16.1048 43.0238 16.766C43.0238 17.0957 42.8016 17.2003 42.5476 17.3209C41.1228 17.9115 39.5948 18.2042 38.0555 18.1813C34.0873 18.1813 31.5952 15.7126 31.5952 11.684C31.5952 7.78397 34.2063 5.25098 38.0317 5.25098C38.7485 5.23236 39.4613 5.36582 40.1241 5.64278C40.787 5.91974 41.3854 6.33409 41.8809 6.85923C43.119 8.19407 43.373 9.93098 43.373 11.684V12.0137C43.373 12.6168 43.0952 12.7374 42.4762 12.7374" fill="white"/>
<path d="M64.0002 17.8516H61.5161C60.8732 17.8516 60.7224 17.5219 60.7224 16.8223L60.4447 8.18606H60.397L56.6272 17.2968C56.5713 17.4748 56.456 17.6276 56.301 17.7288C56.146 17.8301 55.9611 17.8735 55.778 17.8516H54.8574C54.6515 17.8858 54.4402 17.8469 54.2594 17.7413C54.0787 17.6358 53.9394 17.4703 53.8653 17.2727L49.5637 8.18606H49.5161L49.3653 17.0314C49.3653 17.731 49.0478 17.8355 48.524 17.8355H46.4843C45.9129 17.8355 45.6431 17.6345 45.6431 17.1038V17.0475L46.3097 1.19018C46.3097 0.579049 46.6113 0.386059 47.1034 0.386059H48.897C49.1116 0.366029 49.3266 0.420335 49.5068 0.540103C49.687 0.659872 49.8218 0.838021 49.8891 1.04544L55.3812 12.4238H55.4288L60.397 1.04544C60.472 0.834819 60.6123 0.654434 60.7968 0.531239C60.9813 0.408043 61.2002 0.348651 61.4208 0.361935H63.1589C63.651 0.361935 63.8256 0.538843 63.8494 0.997193L64.6431 17.0797V17.1279C64.6431 17.6023 64.4208 17.8275 63.9685 17.8275" fill="white"/>
<path d="M74.8095 9.21515C74.2491 8.71286 73.5402 8.41308 72.7936 8.36277C71.5793 8.36277 70.4127 9.36793 70.4127 11.7079C70.4127 13.2679 70.8095 15.1335 72.6984 15.1335C73.5009 15.0634 74.247 14.6868 74.7857 14.0801L74.8095 9.21515ZM79.0317 17.8514H77.7143C76.246 17.8514 75.6508 17.4252 75.3333 16.6935H75.2778C74.3379 17.6039 73.101 18.1332 71.8016 18.1811C68.2222 18.1811 66.5635 15.3104 66.5635 11.9572C66.5635 7.5104 69.2936 5.24277 72.0238 5.24277C72.6044 5.22454 73.1811 5.34453 73.7077 5.59312C74.2342 5.8417 74.6959 6.21195 75.0555 6.67411L75.127 6.11927C75.1447 5.9779 75.214 5.84836 75.3212 5.75611C75.4284 5.66386 75.5658 5.61556 75.7063 5.62071H77.9365C78.0165 5.6133 78.0971 5.6238 78.1727 5.65149C78.2482 5.67918 78.3168 5.72336 78.3736 5.78091C78.4304 5.83847 78.474 5.90798 78.5014 5.98452C78.5287 6.06106 78.5391 6.14275 78.5317 6.2238V14.9083C78.5317 15.1576 78.6349 15.3345 78.9047 15.3345H79.1032C79.4524 15.3345 79.627 15.4632 79.627 15.8411V17.2966C79.632 17.376 79.6199 17.4557 79.5914 17.5299C79.563 17.6041 79.5188 17.6711 79.4622 17.7262C79.4055 17.7814 79.3376 17.8233 79.2632 17.8491C79.1889 17.8749 79.1099 17.8839 79.0317 17.8756" fill="white"/>
<path d="M84.7939 17.8515H82.5637C82.0399 17.8515 81.7701 17.6746 81.7701 17.1198V6.24804C81.7701 5.74145 82.0875 5.5967 82.5637 5.5967H84.7939C85.2701 5.5967 85.5161 5.71732 85.5161 6.24804V17.1278C85.5161 17.6344 85.2939 17.8596 84.7939 17.8596V17.8515ZM83.6272 4.1332C83.1127 4.15278 82.6116 3.96484 82.2337 3.61059C81.8558 3.25635 81.632 2.76471 81.6113 2.24351C81.6434 1.72709 81.8685 1.24248 82.2408 0.888276C82.6131 0.534076 83.1046 0.336914 83.6153 0.336914C84.126 0.336914 84.6175 0.534076 84.9898 0.888276C85.3621 1.24248 85.5872 1.72709 85.6193 2.24351C85.6047 2.76465 85.3869 3.25871 85.0135 3.61743C84.6401 3.97616 84.1416 4.1703 83.6272 4.15732" fill="white"/>
<path d="M99.2777 17.8516H96.9841C96.4682 17.8516 96.2618 17.5782 96.2618 17.0957V10.4054C96.2618 9.34395 95.992 8.63632 94.8491 8.63632C93.9211 8.66952 93.0304 9.01466 92.3174 9.61735V17.1279C92.3174 17.6103 92.119 17.8596 91.619 17.8596H89.2857C89.1938 17.872 89.1004 17.8633 89.0123 17.8343C88.9241 17.8052 88.8436 17.7564 88.7766 17.6916C88.7095 17.6268 88.6577 17.5475 88.625 17.4597C88.5922 17.3719 88.5793 17.2777 88.5872 17.1842V6.32045C88.5872 5.84601 88.7618 5.58869 89.3095 5.58869H91.3491C91.7222 5.58869 91.992 5.69323 92.0396 6.11942L92.0952 6.65014C93.2218 5.73808 94.6213 5.24178 96.0634 5.24292C98.7936 5.24292 99.9841 6.97983 99.9841 9.72189V17.1279C99.9841 17.6345 99.8095 17.8837 99.2618 17.8837" fill="white"/>
<path d="M15.3968 24.164C15.3968 24.4856 15.1666 24.5339 14.7777 24.5339H8.77774V29.5918H14.1428C14.4603 29.5918 14.5952 29.7285 14.5952 30.01V30.8141C14.5952 31.1438 14.4841 31.2322 14.1666 31.2322H8.77774V38.2603C8.77774 38.6543 8.66663 38.7427 8.32536 38.7427H7.14282C6.7698 38.7427 6.65869 38.6784 6.65869 38.2361V23.3116C6.65869 22.99 6.7698 22.8452 7.0952 22.8452H15.119C15.373 22.8452 15.492 22.9578 15.492 23.199V23.2634L15.3968 24.164Z" fill="white"/>
<path d="M18.6111 38.7669H17.5635C17.2619 38.7669 17.1111 38.6061 17.1111 38.2844V28.0721C17.1111 27.7504 17.2619 27.6057 17.5635 27.6057H18.6111C18.9127 27.6057 19.0476 27.7504 19.0476 28.0721V38.2844C19.0476 38.6061 18.9127 38.7669 18.6111 38.7669ZM18.0635 25.9733C17.9197 25.9733 17.7773 25.9446 17.6444 25.8888C17.5115 25.8331 17.3908 25.7513 17.289 25.6483C17.1873 25.5452 17.1067 25.4229 17.0516 25.2883C16.9966 25.1536 16.9683 25.0093 16.9683 24.8636C16.9683 24.7179 16.9966 24.5736 17.0516 24.4389C17.1067 24.3043 17.1873 24.182 17.289 24.0789C17.3908 23.9759 17.5115 23.8941 17.6444 23.8384C17.7773 23.7826 17.9197 23.7539 18.0635 23.7539C18.2073 23.7539 18.3497 23.7826 18.4826 23.8384C18.6155 23.8941 18.7362 23.9759 18.8379 24.0789C18.9397 24.182 19.0203 24.3043 19.0754 24.4389C19.1304 24.5736 19.1587 24.7179 19.1587 24.8636C19.1587 25.0093 19.1304 25.1536 19.0754 25.2883C19.0203 25.4229 18.9397 25.5452 18.8379 25.6483C18.7362 25.7513 18.6155 25.8331 18.4826 25.8888C18.3497 25.9446 18.2073 25.9733 18.0635 25.9733Z" fill="white"/>
<path d="M31.1109 38.7667H30.0633C29.7617 38.7667 29.6347 38.6059 29.6347 38.2842V31.811C29.6347 30.2028 29.222 28.9886 27.3966 28.9886C26.2185 29.0575 25.0988 29.5312 24.222 30.3315V38.2842C24.222 38.6059 24.0871 38.7667 23.7855 38.7667H22.7379C22.6782 38.7722 22.618 38.7639 22.5619 38.7425C22.5058 38.721 22.4552 38.6869 22.4139 38.6428C22.3727 38.5987 22.3418 38.5457 22.3237 38.4878C22.3056 38.4298 22.3007 38.3685 22.3093 38.3084V28.0719C22.3093 27.7502 22.4204 27.6055 22.7379 27.6055H23.7458C24.0157 27.6055 24.1744 27.7261 24.1744 28.0236V28.7393C25.2306 27.8475 26.5614 27.3582 27.9363 27.3562C30.5553 27.3562 31.5633 28.9644 31.5633 31.4894V38.2842C31.5633 38.6059 31.4442 38.7667 31.1268 38.7667" fill="white"/>
<path d="M41.77 30.5888C41.5007 30.0933 41.1073 29.6786 40.6294 29.3863C40.1514 29.0941 39.6059 28.9347 39.0478 28.9243C37.2859 28.9243 35.9684 30.4923 35.9684 33.2424C35.9684 35.7915 37.1271 37.3595 38.77 37.3595C39.4473 37.3183 40.0974 37.0748 40.6383 36.6598C41.1792 36.2448 41.5868 35.6769 41.8097 35.0275L41.77 30.5888ZM44.3414 38.7667H43.389C43.1767 38.7673 42.9666 38.722 42.7729 38.6338C42.5792 38.5455 42.4063 38.4164 42.2658 38.255C42.1253 38.0936 42.0204 37.9037 41.9582 37.698C41.896 37.4922 41.8778 37.2754 41.9049 37.062H41.8573C41.4862 37.643 40.9805 38.1233 40.3844 38.4611C39.7882 38.7988 39.1195 38.9838 38.4367 38.9999C35.2621 38.9999 33.897 36.2981 33.897 33.3711C33.897 29.5193 36.1509 27.3401 38.7541 27.3401C39.3356 27.3284 39.9123 27.4496 40.4412 27.6946C40.9702 27.9396 41.4379 28.3022 41.8097 28.7554V27.9915C41.8097 27.7181 41.9922 27.5974 42.2462 27.5974H43.27C43.5478 27.5974 43.6827 27.7422 43.6827 28.0397V36.1372C43.651 36.4882 43.6943 36.8421 43.8097 37.1746C43.8461 37.2451 43.9027 37.3029 43.9721 37.3402C44.0415 37.3775 44.1205 37.3927 44.1986 37.3836H44.3573C44.5636 37.3836 44.6748 37.4319 44.6748 37.6812V38.4853C44.6748 38.7185 44.5636 38.7828 44.3335 38.7828" fill="white"/>
<path d="M55.7144 38.7668H54.6271C54.3334 38.7668 54.1985 38.606 54.1985 38.2844V31.8112C54.1985 30.2029 53.7858 28.9887 51.9604 28.9887C50.7827 29.0596 49.6636 29.533 48.7858 30.3316V38.2844C48.7858 38.606 48.6509 38.7668 48.3572 38.7668H47.3096C47.2496 38.7721 47.1892 38.7637 47.1328 38.7423C47.0764 38.7208 47.0254 38.6869 46.9836 38.643C46.9418 38.5991 46.9102 38.5463 46.891 38.4884C46.8719 38.4305 46.8658 38.3691 46.8731 38.3085V28.072C46.8731 27.7503 46.9922 27.6056 47.3096 27.6056H48.3096C48.5874 27.6056 48.7461 27.7262 48.7461 28.0237V28.7394C49.8089 27.8374 51.1534 27.3473 52.5398 27.3563C55.1668 27.3563 56.1668 28.9646 56.1668 31.4895V38.2844C56.1668 38.606 56.0477 38.7668 55.7302 38.7668" fill="white"/>
<path d="M66.9046 38.3325C65.9379 38.778 64.8873 39.0057 63.8253 38.9999C60.2459 38.9999 58.5078 36.6438 58.5078 33.1941C58.5078 29.7444 60.5396 27.3481 63.9602 27.3481C64.971 27.3524 65.9683 27.5831 66.8808 28.0236C67.0396 28.096 67.111 28.1844 67.111 28.3211C67.1074 28.3854 67.0913 28.4483 67.0634 28.5061L66.8808 29.2539C66.8332 29.4067 66.7618 29.5273 66.6269 29.5273C66.5533 29.5206 66.4824 29.4958 66.4205 29.455C65.6776 29.0897 64.8652 28.8921 64.0396 28.876C61.865 28.876 60.4999 30.4842 60.4999 33.1057C60.4999 35.4618 61.5078 37.4962 63.9443 37.4962C64.8254 37.4969 65.6965 37.3077 66.4999 36.9413C66.5604 36.9324 66.6219 36.9324 66.6824 36.9413C66.7935 36.9413 66.865 37.0057 66.9046 37.1665L67.111 37.8178C67.1368 37.8987 67.1528 37.9824 67.1586 38.0671C67.1586 38.2119 67.0951 38.2762 66.8888 38.3727" fill="white"/>
<path d="M70.7939 38.7669H69.7066C69.4129 38.7669 69.2542 38.6061 69.2542 38.2844V28.0721C69.2451 28.0094 69.2504 27.9454 69.2698 27.8852C69.2892 27.825 69.3221 27.7701 69.366 27.7249C69.4098 27.6797 69.4633 27.6455 69.5224 27.6248C69.5815 27.6041 69.6446 27.5975 69.7066 27.6057H70.7939C71.0955 27.6057 71.2304 27.7504 71.2304 28.0721V38.2844C71.2304 38.6061 71.0955 38.7669 70.7939 38.7669ZM70.2066 25.9733C70.0627 25.9733 69.9203 25.9446 69.7874 25.8888C69.6546 25.8331 69.5338 25.7513 69.4321 25.6483C69.3304 25.5452 69.2497 25.4229 69.1947 25.2883C69.1397 25.1536 69.1113 25.0093 69.1113 24.8636C69.1113 24.7179 69.1397 24.5736 69.1947 24.4389C69.2497 24.3043 69.3304 24.182 69.4321 24.0789C69.5338 23.9759 69.6546 23.8941 69.7874 23.8384C69.9203 23.7826 70.0627 23.7539 70.2066 23.7539C70.3504 23.7539 70.4928 23.7826 70.6257 23.8384C70.7586 23.8941 70.8793 23.9759 70.981 24.0789C71.0827 24.182 71.1634 24.3043 71.2184 24.4389C71.2735 24.5736 71.3018 24.7179 71.3018 24.8636C71.3018 25.0093 71.2735 25.1536 71.2184 25.2883C71.1634 25.4229 71.0827 25.5452 70.981 25.6483C70.8793 25.7513 70.7586 25.8331 70.6257 25.8888C70.4928 25.9446 70.3504 25.9733 70.2066 25.9733Z" fill="white"/>
<path d="M81.6191 30.5888C81.3465 30.0875 80.9469 29.6689 80.4614 29.3763C79.9759 29.0837 79.4221 28.9276 78.8572 28.9243C77.0953 28.9243 75.7778 30.4923 75.7778 33.2424C75.7778 35.7915 76.9366 37.3595 78.5794 37.3595C79.2567 37.3183 79.9068 37.0748 80.4477 36.6598C80.9887 36.2448 81.3963 35.6769 81.6191 35.0275V30.5888ZM84.1905 38.7667H83.2382C83.0258 38.7673 82.8157 38.722 82.622 38.6338C82.4283 38.5455 82.2554 38.4164 82.1149 38.255C81.9744 38.0936 81.8696 37.9037 81.8073 37.698C81.7451 37.4922 81.7269 37.2754 81.754 37.062H81.7064C81.3353 37.643 80.8297 38.1233 80.2335 38.4611C79.6373 38.7988 78.9687 38.9838 78.2858 38.9999C75.1112 38.9999 73.7461 36.2981 73.7461 33.3711C73.7461 29.5193 76.0001 27.3401 78.6032 27.3401C79.1847 27.3284 79.7614 27.4496 80.2904 27.6946C80.8193 27.9396 81.2871 28.3022 81.6588 28.7554V27.9915C81.6588 27.7181 81.8413 27.5974 82.0953 27.5974H83.1191C83.3889 27.5974 83.5318 27.7422 83.5318 28.0397V36.1372C83.4992 36.4871 83.537 36.84 83.6429 37.1746C83.6793 37.2451 83.7359 37.3029 83.8054 37.3402C83.8748 37.3775 83.9537 37.3927 84.0318 37.3836H84.1905C84.3969 37.3836 84.508 37.4319 84.508 37.6812V38.4853C84.508 38.7185 84.3969 38.7828 84.1667 38.7828" fill="white"/>
<path d="M88.2539 38.7669H87.1349C86.865 38.7669 86.7222 38.6302 86.7222 38.3085V22.9578C86.7222 22.6361 86.7936 22.5477 87.0634 22.4994L88.2063 22.3386H88.3253C88.5238 22.3386 88.6587 22.4271 88.6587 22.7326V38.2844C88.6587 38.606 88.5238 38.7669 88.2539 38.7669Z" fill="white"/>
<path d="M91.778 36.5556H91.651V37.1426H91.8097C91.8515 37.1483 91.894 37.1449 91.9343 37.1326C91.9747 37.1202 92.0119 37.0992 92.0435 37.071C92.0751 37.0428 92.1004 37.008 92.1176 36.969C92.1348 36.93 92.1434 36.8877 92.1431 36.845C92.1431 36.6279 92.0081 36.5556 91.778 36.5556ZM92.4288 37.9949H92.2224C92.1827 37.9949 92.1669 37.9949 92.151 37.9386L91.8097 37.3436H91.6192V37.9306C91.6192 37.9708 91.6192 37.9949 91.5716 37.9949H91.4288C91.3811 37.9949 91.3811 37.9949 91.3811 37.9306V36.4269C91.3811 36.4269 91.3811 36.3706 91.4367 36.3706H91.77C92.1113 36.3706 92.3732 36.4832 92.3732 36.8531C92.3728 36.9532 92.3421 37.0507 92.2854 37.1327C92.2286 37.2146 92.1485 37.277 92.0558 37.3114L92.4208 37.9306C92.4243 37.9465 92.4243 37.963 92.4208 37.9789L92.4288 37.9949ZM91.8653 35.7756C91.5965 35.774 91.3334 35.8532 91.1091 36.0034C90.8849 36.1535 90.7097 36.3677 90.6058 36.6188C90.5019 36.8699 90.4738 37.1466 90.5253 37.4139C90.5768 37.6812 90.7054 37.9269 90.8949 38.12C91.0844 38.3131 91.3262 38.4449 91.5896 38.4986C91.8531 38.5523 92.1264 38.5256 92.3748 38.4217C92.6233 38.3179 92.8357 38.1417 92.9852 37.9154C93.1347 37.6891 93.2145 37.4229 93.2145 37.1506C93.2155 36.9704 93.1814 36.7918 93.1141 36.625C93.0467 36.4582 92.9475 36.3066 92.8221 36.1788C92.6967 36.051 92.5476 35.9496 92.3834 35.8804C92.2192 35.8112 92.0431 35.7755 91.8653 35.7756ZM91.8653 38.8151C91.6478 38.8162 91.4323 38.7737 91.2311 38.6901C91.0299 38.6066 90.847 38.4835 90.6929 38.3281C90.5387 38.1727 90.4164 37.9879 90.333 37.7845C90.2495 37.581 90.2065 37.3629 90.2065 37.1426C90.2356 36.718 90.4225 36.3203 90.7297 36.03C91.0368 35.7396 91.4412 35.5781 91.8613 35.5781C92.2814 35.5781 92.6858 35.7396 92.9929 36.03C93.3001 36.3203 93.487 36.718 93.5161 37.1426C93.5192 37.3636 93.4791 37.583 93.3981 37.7882C93.317 37.9934 93.1966 38.1803 93.0438 38.338C92.8911 38.4958 92.709 38.6213 92.508 38.7074C92.3071 38.7934 92.0913 38.8382 91.8732 38.8393" fill="white"/>
</g>
<defs>
<clipPath id="clip0_282_10391">
<rect width="100" height="39" fill="white"/>
</clipPath>
</defs>
</svg>
