<svg width="112" height="44" viewBox="0 0 112 44" fill="none" xmlns="http://www.w3.org/2000/svg">
<path fill-rule="evenodd" clip-rule="evenodd" d="M5.64336 11.3124C5.64336 7.2823 7.30796 5.17965 9.67345 5.17965C12.3018 5.17965 13.7035 7.01947 13.7035 11.3124C13.7035 15.6053 12.2142 17.5327 9.76106 17.5327C7.13274 17.5327 5.64336 15.6929 5.64336 11.3124ZM1 11.4876C1 17.3575 4.06637 21.3 9.58584 21.3C14.7549 21.3 18.3469 17.5327 18.3469 11.3124C18.3469 5.79292 15.4558 1.5 9.76106 1.5C4.3292 1.5 1 5.6177 1 11.4876ZM30.0867 20.9496H32.6274C33.2407 20.9496 33.4159 20.6867 33.4159 20.1611V12.1885C33.4159 9.20974 32.1018 7.28231 29.123 7.28231C27.546 7.28231 25.969 7.89558 24.7425 8.8593L24.6549 8.24602C24.5673 7.72036 24.3044 7.63275 23.8664 7.63275H21.5885C20.9752 7.63275 20.8 7.89558 20.8 8.42124V20.2487C20.8 20.6867 21.1504 20.9496 21.5885 20.9496H24.1292C24.6549 20.9496 24.9177 20.6867 24.9177 20.1611V12.0133C25.7062 11.4 26.8451 10.962 27.7212 10.962C29.0354 10.962 29.2982 11.7504 29.2982 12.8894V20.1611C29.2982 20.6867 29.4735 20.9496 30.0867 20.9496ZM42.7027 10.3487C41.3009 10.3487 40.4248 11.4876 40.2496 12.7142H44.8053C44.8053 11.5752 44.1044 10.3487 42.7027 10.3487ZM47.8717 15.3425H40.162C40.5124 17.0947 42.0018 18.0584 43.6664 18.0584C44.8929 18.0584 46.0319 17.7956 47.0832 17.3575C47.1708 17.2699 47.2584 17.2699 47.4336 17.2699C47.6965 17.2699 47.7841 17.4451 47.8717 17.6204C47.905 17.787 47.9891 18.0805 48.0805 18.3995C48.2292 18.9189 48.3974 19.5059 48.3974 19.723C48.3974 20.0133 48.217 20.1233 48.0057 20.2521C47.9619 20.2787 47.9168 20.3062 47.8717 20.3363C46.3823 21.0372 44.5425 21.3 42.8779 21.3C38.4974 21.3 35.7814 18.5841 35.7814 14.2035C35.7814 9.91062 38.6726 7.19469 42.8779 7.19469C44.6301 7.19469 46.1195 7.89558 47.1708 8.9469C48.5726 10.4363 48.8354 12.2761 48.8354 14.2035V14.554C48.8354 15.2549 48.5726 15.3425 47.8717 15.3425ZM92.1151 20.9496H94.5682C95.1814 20.9496 95.4443 20.6867 95.3567 20.1611V8.33363C95.3567 7.80796 95.0938 7.63274 94.5682 7.63274H92.1151C91.5894 7.63274 91.239 7.80796 91.239 8.33363V20.1611C91.239 20.7743 91.5018 20.9496 92.1151 20.9496ZM91.1514 3.9531C91.1514 5.26726 92.2903 5.96814 93.3416 5.96814C94.3929 5.96814 95.5319 5.26726 95.5319 3.9531C95.5319 2.63894 94.4806 1.85044 93.3416 1.85044C92.2903 1.85044 91.1514 2.63894 91.1514 3.9531ZM71.6142 20.9496H68.8982C68.1973 20.9496 68.0221 20.5991 68.0221 19.8106L67.7593 10.4363H67.6717L63.554 20.3363C63.2911 20.8619 62.9407 20.9496 62.5903 20.9496H61.5389C61.0133 20.9496 60.7504 20.8619 60.4 20.3363L55.669 10.4363H55.5814L55.4062 20.0735C55.4062 20.8619 55.0557 20.9496 54.4425 20.9496H52.1646C51.5513 20.9496 51.2009 20.6867 51.2009 20.1611V20.0735L51.9018 2.81416C51.9018 2.11328 52.2522 1.93806 52.7779 1.93806H54.7929C55.4062 1.93806 55.669 2.20089 55.9319 2.63894L61.977 14.992H62.0646L67.6717 2.63894C67.9345 2.20089 68.1973 1.93806 68.8106 1.93806H70.7381C71.2637 1.93806 71.4389 2.11328 71.5266 2.63894L72.4027 20.1611C72.4027 20.6867 72.1398 20.9496 71.6142 20.9496ZM83.6168 11.5752C83.0911 11.1372 82.215 10.6115 81.4265 10.6115C80.1124 10.6115 78.7982 11.7504 78.7982 14.2912C78.7982 15.9558 79.2363 18.0584 81.3389 18.0584C82.3027 18.0584 83.354 17.3575 83.6168 16.9195V11.5752ZM88.2602 20.9496H86.7708C85.1938 20.9496 84.4929 20.5115 84.1425 19.723H84.0549C83.354 20.5991 81.5142 21.3 80.2 21.3C76.2575 21.3 74.4177 18.146 74.4177 14.554C74.4177 9.7354 77.3965 7.19469 80.4628 7.19469C82.0398 7.19469 83.2664 7.89558 83.792 8.77169L83.8796 8.15841C83.8796 7.89558 84.1425 7.63275 84.4929 7.63275H86.946C87.2965 7.63275 87.6469 7.80797 87.6469 8.24602V17.708C87.6469 17.9708 87.7345 18.146 88.085 18.146H88.3478C88.6982 18.146 88.9611 18.3212 88.9611 18.6717V20.2487C88.8734 20.6867 88.6106 20.9496 88.2602 20.9496ZM110.601 20.9496H108.06C107.447 20.9496 107.272 20.6867 107.272 20.1611V12.8894C107.272 11.7505 107.009 10.962 105.695 10.962C104.819 10.962 103.68 11.4 102.891 12.0133V20.1611C102.891 20.6867 102.716 20.9496 102.103 20.9496H99.5619C99.1239 20.9496 98.7734 20.6867 98.7734 20.2487V8.42125C98.7734 7.89558 98.9487 7.63275 99.5619 7.63275H101.84C102.278 7.63275 102.541 7.72036 102.628 8.24603L102.716 8.8593C103.942 7.89558 105.519 7.28231 107.096 7.28231C110.075 7.28231 111.389 9.20974 111.389 12.1885V20.1611C111.389 20.6867 111.214 20.9496 110.601 20.9496ZM97.1965 43.7283H98.423C98.6858 43.7283 98.8611 43.5531 98.7735 43.2026V26.2938C98.7735 25.9433 98.6858 25.8557 98.423 25.8557H98.3354L97.1088 26.031C96.846 26.1186 96.7584 26.2062 96.7584 26.5566V43.2026C96.7584 43.5531 96.9336 43.7283 97.1965 43.7283ZM17.9965 27.7832C17.9965 28.1336 17.7336 28.2212 17.2956 28.2212H10.6372V33.7407H16.5947C16.9451 33.7407 17.1204 33.9159 17.1204 34.1788V35.0549C17.1204 35.4053 17.0327 35.4929 16.6823 35.4929H10.7248V43.115C10.7248 43.5531 10.6372 43.6407 10.1991 43.6407H8.88495C8.4469 43.6407 8.35929 43.5531 8.35929 43.115V26.9071C8.35929 26.5566 8.4469 26.3814 8.79734 26.3814H17.646C17.9088 26.3814 18.0841 26.469 18.0841 26.7319V26.8195L17.9965 27.7832ZM21.5885 43.7283H20.4496C20.0991 43.7283 19.9239 43.5531 19.9239 43.2027V32.0761C19.9239 31.7257 20.0991 31.5504 20.4496 31.5504H21.5885C21.9389 31.5504 22.0265 31.7257 22.0265 32.0761V43.2027C22.0265 43.5531 21.8513 43.7283 21.5885 43.7283ZM20.9752 29.7982C20.2743 29.7982 19.6611 29.3602 19.6611 28.5717C19.6611 27.8708 20.2743 27.3451 20.9752 27.3451C21.6761 27.3451 22.2894 27.7832 22.2894 28.5717C22.2894 29.3602 21.5885 29.7982 20.9752 29.7982ZM34.1168 43.7283H35.3434C35.6938 43.7283 35.869 43.5531 35.7814 43.115V35.7557C35.7814 33.0398 34.6425 31.2876 31.7513 31.2876C30.262 31.2876 28.7726 31.8133 27.6336 32.777V31.9885C27.6336 31.6381 27.4584 31.5504 27.1956 31.5504H26.0566C25.7062 31.5504 25.6186 31.7257 25.6186 32.0761V43.2903C25.6186 43.6407 25.7938 43.8159 26.0566 43.8159H27.2832C27.546 43.8159 27.7212 43.6407 27.7212 43.2903V34.6168C28.5974 33.8283 30.0867 33.1274 31.2257 33.1274C33.2407 33.1274 33.6788 34.4416 33.6788 36.1938V43.2027C33.6788 43.5531 33.7664 43.7283 34.1168 43.7283ZM47.0832 34.792C46.4699 33.6531 45.2434 32.9522 44.0168 32.9522C42.0894 32.9522 40.6 34.7044 40.6 37.6832C40.6 40.4867 41.9142 42.1513 43.6664 42.1513C45.2434 42.1513 46.5575 40.8372 46.9956 39.6106V34.792H47.0832ZM49.9743 43.7283H48.923C47.7841 43.7283 47.2584 42.8522 47.2584 41.8885H47.1708C46.5575 43.0274 44.8929 43.9911 43.4036 43.9911C39.8991 43.9911 38.4097 41.0124 38.4097 37.8584C38.4097 33.6531 40.8628 31.2876 43.754 31.2876C44.9805 31.2876 46.3823 31.8133 47.0832 32.8646V32.0761C47.0832 31.8133 47.2584 31.6381 47.5213 31.6381H48.6602C48.923 31.6381 49.0982 31.8133 49.0982 32.0761V40.9248C49.0982 41.5381 49.0982 41.8885 49.1859 42.0637C49.2735 42.2389 49.4487 42.3265 49.6239 42.3265H49.7991C50.062 42.3265 50.1496 42.4142 50.1496 42.677V43.5531C50.3248 43.6407 50.2372 43.7283 49.9743 43.7283ZM61.3637 43.7283H62.5027C62.8531 43.7283 62.9407 43.5531 63.0283 43.115V35.7557C63.0283 33.0398 61.8894 31.2876 58.9982 31.2876C57.5089 31.2876 56.0195 31.8133 54.8805 32.777V31.9885C54.8805 31.6381 54.7053 31.5504 54.4425 31.5504H53.3036C52.9531 31.5504 52.8655 31.7257 52.8655 32.0761V43.2903C52.8655 43.6407 53.0407 43.8159 53.3036 43.8159H54.5301C54.7929 43.8159 54.9682 43.6407 54.9682 43.2903V34.6168C55.8443 33.8283 57.3336 33.1274 58.4726 33.1274C60.4876 33.1274 60.9257 34.4416 60.9257 36.1938V43.2027C60.9257 43.5531 61.0133 43.7283 61.3637 43.7283ZM74.8558 43.2903C73.8044 43.8159 72.5779 43.9911 71.4389 43.9911C67.4965 43.9911 65.569 41.4504 65.569 37.6832C65.569 34.0035 67.8469 31.2876 71.6142 31.2876C72.6655 31.2876 73.9797 31.5504 74.8558 31.9885C75.031 32.0761 75.1186 32.1637 75.1186 32.3389C75.1186 32.3762 75.1186 32.3976 75.1119 32.4166C75.1028 32.4424 75.0814 32.4638 75.031 32.5142L74.8558 33.3027C74.8397 33.3348 74.8266 33.364 74.8148 33.3903C74.7623 33.5071 74.736 33.5655 74.5929 33.5655C74.5053 33.5655 74.4177 33.5655 74.3301 33.4779C73.5416 33.1274 72.6655 32.8646 71.7018 32.8646C69.3363 32.8646 67.7593 34.6168 67.7593 37.508C67.7593 40.0487 68.8982 42.3265 71.5266 42.3265C72.5779 42.3265 73.5416 42.0637 74.3301 41.7133C74.4177 41.7133 74.5053 41.6257 74.5053 41.6257C74.5929 41.6257 74.6805 41.7133 74.7682 41.8885L75.031 42.5894C75.031 42.6332 75.0529 42.677 75.0748 42.7208L75.0748 42.7209C75.0967 42.7646 75.1186 42.8084 75.1186 42.8522C75.1186 43.115 75.1186 43.115 74.8558 43.2903ZM78.0097 43.7283H79.1487C79.4115 43.7283 79.5867 43.5531 79.5867 43.2027V32.0761C79.5867 31.7257 79.4991 31.5504 79.1487 31.5504H78.0097C77.6593 31.5504 77.4841 31.7257 77.4841 32.0761V43.2027C77.4841 43.5531 77.6593 43.7283 78.0097 43.7283ZM77.2212 28.5717C77.2212 29.3602 77.8345 29.7982 78.5354 29.7982C79.1487 29.7982 79.8496 29.3602 79.8496 28.5717C79.8496 27.7832 79.2363 27.3451 78.5354 27.3451C77.8345 27.3451 77.2212 27.8708 77.2212 28.5717ZM91.0638 34.792C90.4505 33.6531 89.2239 32.9522 87.9974 32.9522C86.0699 32.9522 84.5806 34.7044 84.5806 37.6832C84.5806 40.4867 85.8947 42.1513 87.6469 42.1513C89.2239 42.1513 90.5381 40.8372 90.9761 39.6106V34.792H91.0638ZM93.9549 43.7283H92.9036C91.7646 43.7283 91.239 42.8522 91.239 41.8885H91.1514C90.5381 43.0274 88.8735 43.9911 87.3841 43.9911C83.8797 43.9911 82.3903 41.0124 82.3903 37.8584C82.3903 33.6531 84.8434 31.2876 87.7346 31.2876C88.9611 31.2876 90.3629 31.8133 91.0638 32.8646V32.0761C91.0638 31.8133 91.239 31.6381 91.5018 31.6381H92.6407C92.9036 31.6381 93.0788 31.8133 93.0788 32.0761V40.9248C93.0788 41.5381 93.0788 41.8885 93.1664 42.0637C93.254 42.2389 93.4292 42.3265 93.6045 42.3265H93.7797C94.0425 42.3265 94.1301 42.4142 94.1301 42.677V43.5531C94.3053 43.6407 94.2177 43.7283 93.9549 43.7283ZM102.103 41.3628H102.278C102.541 41.3628 102.716 41.4504 102.628 41.6257C102.628 41.8885 102.453 41.9761 102.278 41.9761H102.103V41.3628ZM102.804 42.8522H103.066L102.628 42.1513C102.804 42.0637 102.979 41.8885 102.979 41.6257C102.979 41.1876 102.628 41.1 102.278 41.1H101.927C101.884 41.1 101.862 41.1 101.851 41.111C101.84 41.1219 101.84 41.1438 101.84 41.1876V42.7646C101.84 42.8084 101.84 42.8303 101.851 42.8413C101.862 42.8522 101.884 42.8522 101.927 42.8522H102.103C102.19 42.8522 102.19 42.7646 102.19 42.7646V42.1513H102.365L102.716 42.7646C102.716 42.8084 102.716 42.8303 102.727 42.8413C102.738 42.8522 102.76 42.8522 102.804 42.8522ZM100.964 41.9761C100.964 41.1876 101.577 40.4867 102.453 40.4867C103.242 40.4867 103.942 41.1876 103.942 41.9761C103.942 42.7646 103.329 43.4655 102.453 43.4655C101.577 43.4655 100.964 42.7646 100.964 41.9761ZM100.613 41.9761C100.613 43.0274 101.402 43.8159 102.453 43.8159C103.417 43.8159 104.205 43.0274 104.293 41.9761C104.293 40.9248 103.504 40.1363 102.453 40.1363C101.402 40.1363 100.613 40.9248 100.613 41.9761Z" fill="#2659D9"/>
</svg>
