<svg width="216" height="20" viewBox="0 0 216 20" fill="none" xmlns="http://www.w3.org/2000/svg">
  <path fill-rule="evenodd" clip-rule="evenodd" d="M0 10C0 15.9 3.1 19.8 8.6 19.8C13.7 19.8 17.4 16 17.4 9.8C17.4 4.2 14.5 0 8.8 0C3.3 0 0 4.1 0 10ZM4.6 9.9C4.6 5.8 6.2 3.7 8.6 3.7C11.2 3.7 12.7 5.5 12.7 9.9C12.7 14.2 11.1 16.1 8.7 16.1C6.1 16.1 4.6 14.2 4.6 9.9ZM29 19.4H31.5C32.1 19.4 32.3 19.1 32.3 18.7V10.7C32.3 7.69999 31 5.79999 28 5.79999C26.4 5.79999 24.9 6.29999 23.6 7.29999L23.5 6.69999C23.4 6.19999 23.1 6.09999 22.7 6.09999H20.5C19.9 6.09999 19.7 6.39999 19.7 6.89999V18.8C19.7 19.3 20 19.5 20.5 19.5H23C23.6 19.5 23.8 19.2 23.8 18.7V10.5C24.6 9.79999 25.7 9.39999 26.6 9.39999C27.9 9.39999 28.2 10.2 28.2 11.3V18.6C28.2 19.1 28.4 19.4 29 19.4ZM46.8 13.8H39.1C39.4 15.5 41 16.5 42.6 16.5C43.8 16.5 45 16.2 46 15.8C46.1 15.7 46.2 15.7 46.3 15.7C46.5 15.7 46.7 15.9 46.7 16.1C46.7372 16.2861 46.816 16.5692 46.9003 16.872L46.9003 16.8721C47.0424 17.3826 47.2 17.9489 47.2 18.2C47.2 18.6 47 18.7 46.7 18.8C45.3 19.5 43.3 19.7 41.7 19.7C37.3 19.7 34.6 17 34.6 12.6C34.6 8.40001 37.5 5.60001 41.7 5.60001C43.4 5.60001 44.9 6.30001 45.9 7.30001C47.3 8.70001 47.5 10.6 47.5 12.6V13C47.8 13.7 47.5 13.8 46.8 13.8ZM41.6 8.80001C40.2 8.80001 39.3 9.90001 39.1 11.2H43.7C43.7 10.1 43 8.80001 41.6 8.80001ZM70.5 19.4H67.8C67.1 19.4 66.9 19 66.9 18.3L66.6 8.89999H66.5L62.4 18.8C62.2 19.4 61.8 19.4 61.4 19.4H60.4C59.9 19.4 59.6 19.3 59.3 18.8L54.6 8.89999H54.5L54.3 18.6C54.3 19.4 53.9 19.4 53.4 19.4H51.2C50.6 19.4 50.3 19.2 50.3 18.6V18.5L51 1.19999C51 0.499988 51.3 0.299988 51.8 0.299988H53.8C54.4 0.299988 54.7 0.499988 54.9 0.999988L61 13.4H61.1L66.5 1.09999C66.7 0.699988 67 0.399988 67.6 0.399988H69.5C70 0.399988 70.2 0.599988 70.3 1.09999L71.2 18.6V18.7C71.2 19.2 71 19.4 70.5 19.4ZM87.1 19.4H85.7C84.1 19.4 83.4 18.9 83.1 18.1H83C82.3 18.9 80.5 19.7 79.2 19.7C75.3 19.7 73.4 16.6 73.4 12.9C73.4 8.10001 76.4 5.60001 79.4 5.60001C80.9 5.60001 82.2 6.30001 82.7 7.10001L82.8 6.50001C82.8 6.20001 83.1 6.00001 83.4 6.00001H85.9C86.3 6.00001 86.6 6.20001 86.6 6.70001V16.1C86.6 16.4 86.7 16.6 87 16.6H87.2C87.6 16.6 87.8 16.7 87.8 17.1V18.7C87.7 19.2 87.4 19.4 87.1 19.4ZM82.4 10C81.9 9.60001 81 9.10001 80.2 9.10001C78.9 9.10001 77.6 10.2 77.6 12.7C77.6 14.4 78 16.4 80.1 16.4C81.1 16.4 82.1 15.7 82.4 15.3V10ZM89.9 2.49999C89.9 3.79999 91.1 4.49999 92.1 4.49999C93.2 4.49999 94.3 3.69999 94.3 2.49999C94.3 1.19999 93.2 0.399994 92.1 0.399994C91 0.399994 89.9 1.19999 89.9 2.49999ZM90.9 19.4H93.4C94 19.4 94.2 19.2 94.2 18.6V6.79999C94.2 6.19999 93.9 6.09999 93.4 6.09999H90.9C90.5 6.09999 90.1 6.29999 90.1 6.79999V18.6C90.1 19.2 90.3 19.4 90.9 19.4ZM109.4 19.4H106.9C106.3 19.4 106.1 19.1 106.1 18.6V11.3C106.1 10.2 105.8 9.39999 104.5 9.39999C103.6 9.39999 102.5 9.79999 101.7 10.5V18.7C101.7 19.2 101.5 19.5 100.9 19.5H98.3C97.8 19.5 97.5 19.3 97.5 18.8V6.89999C97.5 6.39999 97.7 6.09999 98.3 6.09999H100.5C100.9 6.09999 101.2 6.19999 101.3 6.69999L101.4 7.29999C102.7 6.29999 104.2 5.79999 105.8 5.79999C108.8 5.79999 110.1 7.69999 110.1 10.7V18.7C110.2 19.1 110 19.4 109.4 19.4ZM208.8 19.4H210.1C210.4 19.4 210.5 19.2 210.5 18.9V1.60001C210.5 1.30001 210.3 1.20001 210.1 1.20001H210L208.7 1.40001C208.4 1.40001 208.3 1.50001 208.3 1.90001V18.9C208.3 19.2 208.5 19.4 208.8 19.4ZM128.2 3.19999C128.2 3.59999 127.9 3.59999 127.5 3.59999H120.8V9.19999H126.8C127.2 9.19999 127.3 9.39999 127.3 9.69999V10.6C127.3 11 127.2 11.1 126.8 11.1H120.7V18.9C120.7 19.3 120.6 19.4 120.2 19.4H118.9C118.5 19.4 118.4 19.3 118.4 18.8V2.29999C118.4 1.89999 118.5 1.79999 118.9 1.79999H127.9C128.2 1.79999 128.3 1.89999 128.3 2.19999V2.29999L128.2 3.19999ZM131.2 5.19999C130.5 5.19999 129.9 4.69999 129.9 3.99999C129.9 3.29999 130.5 2.79999 131.2 2.79999C131.9 2.79999 132.5 3.29999 132.5 3.99999C132.5 4.69999 131.8 5.19999 131.2 5.19999ZM131.8 19.4H130.6C130.3 19.4 130.1 19.2 130.1 18.9V7.49999C130.1 7.09999 130.3 6.99999 130.6 6.99999H131.8C132.1 6.99999 132.3 7.19999 132.3 7.49999V18.8C132.3 19.2 132.1 19.4 131.8 19.4ZM144.7 19.4H145.9C146.2 19.4 146.3 19.2 146.4 18.9V11.4C146.4 8.59999 145.2 6.79999 142.3 6.79999C140.8 6.79999 139.3 7.29999 138.1 8.29999V7.49999C138.1 7.09999 137.9 6.99999 137.6 6.99999H136.5C136.1 6.99999 136 7.09999 136 7.49999V18.9C136 19.2 136.2 19.4 136.5 19.4H137.7C138 19.4 138.2 19.3 138.2 18.9V10.1C139.1 9.29999 140.5 8.59999 141.7 8.59999C143.7 8.59999 144.2 9.89999 144.2 11.7V18.9C144.2 19.2 144.4 19.4 144.7 19.4ZM160.7 19.4H159.6C158.5 19.4 157.9 18.5 157.9 17.5H157.8C157.2 18.6 155.5 19.7 154 19.7C150.5 19.7 148.9 16.7 148.9 13.5C148.9 9.19999 151.4 6.79999 154.4 6.79999C155.7 6.79999 157.1 7.29999 157.8 8.39999V7.59999C157.8 7.29999 158 7.19999 158.3 7.19999H159.5C159.8 7.19999 160 7.39999 160 7.69999V16.7C160 17.3 160 17.7 160.1 17.9C160.2 18.1 160.3 18.1 160.5 18.1H160.7C160.9 18.1 161.1 18.2 161.1 18.4V19.3C161.1 19.3 161 19.4 160.7 19.4ZM157.8 10.3C157.2 9.09999 155.9 8.49999 154.7 8.49999C152.7 8.49999 151.2 10.2 151.2 13.3C151.2 16.1 152.5 17.9 154.4 17.9C156 17.9 157.3 16.6 157.8 15.3V10.3ZM172.3 19.4H173.5C173.8 19.4 174 19.2 174 18.9V11.4C174 8.59999 172.8 6.79999 169.9 6.79999C168.4 6.79999 166.9 7.29999 165.7 8.29999V7.49999C165.7 7.09999 165.5 6.99999 165.2 6.99999H164.1C163.7 6.99999 163.6 7.09999 163.6 7.49999V18.9C163.6 19.2 163.8 19.4 164.1 19.4H165.3C165.6 19.4 165.8 19.3 165.8 18.9V10.1C166.7 9.29999 168.1 8.59999 169.3 8.59999C171.3 8.59999 171.8 9.89999 171.8 11.7V18.9C171.8 19.2 172 19.4 172.3 19.4ZM186.1 18.9C185 19.4 183.8 19.6 182.6 19.6C178.6 19.6 176.6 17 176.6 13.2C176.6 9.40001 178.9 6.70001 182.7 6.70001C183.8 6.70001 185.1 7.00001 186 7.40001C186.2 7.50001 186.3 7.60001 186.3 7.70001C186.3 7.80001 186.3 7.80001 186.2 7.90001L186 8.70001C185.982 8.73671 185.967 8.77004 185.953 8.8C185.893 8.93334 185.863 9.00001 185.7 9.00001C185.6 9.00001 185.5 9.00001 185.5 8.90001C184.7 8.50001 183.8 8.30001 182.8 8.30001C180.4 8.30001 178.8 10.1 178.8 13C178.8 15.6 179.9 17.9 182.7 17.9C183.8 17.9 184.7 17.6 185.6 17.3C185.7 17.3 185.8 17.2 185.8 17.2C185.9 17.2 186 17.3 186.1 17.5L186.3 18.2C186.3 18.25 186.325 18.3 186.35 18.35C186.375 18.4 186.4 18.45 186.4 18.5C186.4 18.7 186.3 18.8 186.1 18.9ZM188.5 3.99999C188.5 4.69999 189.1 5.19999 189.8 5.19999C190.4 5.19999 191.1 4.69999 191.1 3.99999C191.1 3.29999 190.5 2.79999 189.8 2.79999C189.1 2.79999 188.5 3.29999 188.5 3.99999ZM189.2 19.4H190.4C190.7 19.4 190.9 19.2 190.9 18.8V7.49999C190.9 7.19999 190.7 6.99999 190.4 6.99999H189.2C188.9 6.99999 188.7 7.09999 188.7 7.49999V18.9C188.7 19.2 188.9 19.4 189.2 19.4ZM205.5 19.4H204.4C203.3 19.4 202.7 18.5 202.7 17.5H202.6C202 18.6 200.3 19.7 198.8 19.7C195.3 19.7 193.7 16.7 193.7 13.5C193.7 9.19999 196.2 6.79999 199.2 6.79999C200.5 6.79999 201.9 7.29999 202.6 8.39999V7.59999C202.6 7.29999 202.8 7.19999 203.1 7.19999H204.3C204.6 7.19999 204.8 7.39999 204.8 7.69999V16.7V16.7001C204.8 17.3 204.8 17.7 204.9 17.9C205 18.1 205.1 18.1 205.3 18.1H205.5C205.7 18.1 205.9 18.2 205.9 18.4V19.3C205.9 19.3 205.8 19.4 205.5 19.4ZM202.6 10.3C202 9.09999 200.7 8.49999 199.5 8.49999C197.5 8.49999 196 10.2 196 13.3C196 16.1 197.3 17.9 199.2 17.9C200.8 17.9 202.1 16.6 202.6 15.3V10.3ZM212.2 17.6C212.2 18.7 213.1 19.5 214.1 19.5C215.2 19.5 216 18.7 216 17.6C216 16.6 215.1 15.8 214.1 15.8C213 15.8 212.2 16.6 212.2 17.6ZM212.6 17.6C212.6 16.8 213.2 16.1 214.1 16.1C215 16.1 215.6 16.8 215.6 17.6C215.6 18.4 215 19.1 214.1 19.1C213.3 19.1 212.6 18.4 212.6 17.6ZM214.5 18.5C214.5 18.6 214.6 18.6 214.6 18.6H214.8L214.3 17.7C214.5 17.6 214.7 17.4 214.7 17.2C214.7 16.8 214.4 16.7 214 16.7H213.6C213.55 16.7 213.525 16.7 213.513 16.7125C213.5 16.725 213.5 16.75 213.5 16.8V18.5C213.5 18.6 213.6 18.6 213.6 18.6H213.8C213.9 18.6 213.9 18.5 213.9 18.5V17.8H214.1L214.5 18.5ZM213.9 17H214C214.3 17 214.4 17.1 214.5 17.4C214.5 17.6 214.3 17.7 214.1 17.7H213.9V17Z" fill="white"/>
</svg>
